<?xml version="1.0" encoding="UTF-8"?>
<!DOCTYPE svg PUBLIC "-//W3C//DTD SVG 1.1//EN" "http://www.w3.org/Graphics/SVG/1.1/DTD/svg11.dtd">
<!-- Creator: CorelDRAW -->
<svg xmlns="http://www.w3.org/2000/svg" xml:space="preserve" width="66.1458mm" height="66.1458mm" version="1.1" style="shape-rendering:geometricPrecision; text-rendering:geometricPrecision; image-rendering:optimizeQuality; fill-rule:evenodd; clip-rule:evenodd"
viewBox="0 0 6614.58 6614.58"
 xmlns:xlink="http://www.w3.org/1999/xlink"
 xmlns:xodm="http://www.corel.com/coreldraw/odm/2003">
 <defs>
  <style type="text/css">
   <![CDATA[
    .fil0 {fill:#C82C74}
   ]]>
  </style>
 </defs>
 <g id="Слой_x0020_1">
  <metadata id="CorelCorpID_0Corel-Layer"/>
  <image id="tip_4.png" x="-1511.4" y="-1631.68" width="9767.88" height="9767.88" xlink:href="Безымянный-1_Images\Безымянный-1_ImgID1.png"/>
  <g id="_2114639869600">
   <path class="fil0" d="M2073.39 2953.52c0,354.7 52.11,576.04 244.42,853.26 118.1,170.27 342.47,367.68 533.73,452.78 607.33,270.23 1323.59,99.92 1708.95,-444.61 381.44,-539 334.74,-1283.98 -149.33,-1768.05 -538.34,-538.34 -1399.43,-538.86 -1938.3,0 -62.73,62.73 -98.65,98.63 -149.33,170.24 -143.54,202.82 -250.14,459.9 -250.14,736.38z"/>
   <path class="fil0" d="M1573.19 4356.87c0,146.93 27.81,268.55 134.86,379.24 190.81,197.3 522.39,207.62 723.4,6.6 198.51,-198.51 191.04,-524.53 0.35,-716.45 -312.34,-314.36 -858.61,-69.33 -858.61,330.61z"/>
   <path class="fil0" d="M2656.97 1230.6c0,152.62 129.86,296.66 291.82,305.4 112,6.05 174.74,-20.02 232.5,-72.86 166.04,-151.85 123.15,-437.85 -91.61,-526.5 -5.46,-2.25 -51.47,-17.72 -63.74,-19.95 -162.01,-29.37 -368.97,110.17 -368.97,313.91z"/>
   <path class="fil0" d="M3949.16 4523.61c0,98.41 17.39,183.18 94.82,252.54 218.58,195.8 516.54,1.21 516.54,-183.07 0,-109.7 9.97,-165.53 -86.21,-261.15 -189.25,-188.16 -525.15,-57.3 -525.15,191.68z"/>
   <path class="fil0" d="M1517.61 3509.3c0,396.96 555.78,369.25 555.78,41.69l0 -69.47c0,-96.11 -122.88,-222.32 -222.31,-222.32 -107.96,0 -173.01,-8.06 -253.99,79.49 -29.04,31.42 -79.48,117.73 -79.48,170.61z"/>
   <path class="fil0" d="M4282.63 1689.12c0,330.22 421.09,287.88 410.45,13.43 -5.55,-142.95 -195.79,-270.36 -351.62,-135.23 -27.46,23.81 -58.83,74.62 -58.83,121.8z"/>
   <path class="fil0" d="M1948.34 1703.01c0,37.72 20.75,90.57 38.6,114.24 110.32,146.16 354.4,28.26 312.05,-129.77 -33.67,-125.62 -113.17,-189.87 -230.1,-142.86 -66.15,26.59 -120.55,67.48 -120.55,158.39z"/>
   <path class="fil0" d="M3129.38 4690.34c0,303.58 333.47,201.14 333.47,83.37l0 -111.16c0,-33.77 -77.38,-111.15 -111.16,-111.15 -74.36,0 -222.31,-8.53 -222.31,138.94z"/>
   <path class="fil0" d="M4782.83 4051.19c0,198.71 347.37,249.45 347.37,-13.89 0,-82.61 -83.74,-152.84 -125.05,-152.84 -106.78,0 -222.32,30.92 -222.32,166.73z"/>
   <path class="fil0" d="M5060.72 2092.06c172.5,0 156.4,-236.21 13.9,-236.21 -82.05,0 -117.34,84.44 -119.34,111.31 -5.45,72.84 71.81,124.9 105.44,124.9z"/>
   <path class="fil0" d="M4338.21 4148.45c0,115.06 194.52,115.06 194.52,0 0,-128.93 -194.52,-138.48 -194.52,0z"/>
  </g>
 </g>
</svg>
