<?xml version="1.0" encoding="UTF-8"?>
<!DOCTYPE svg PUBLIC "-//W3C//DTD SVG 1.1//EN" "http://www.w3.org/Graphics/SVG/1.1/DTD/svg11.dtd">
<!-- Creator: CorelDRAW -->
<svg xmlns="http://www.w3.org/2000/svg" xml:space="preserve" width="66.1458mm" height="66.1458mm" version="1.1" style="shape-rendering:geometricPrecision; text-rendering:geometricPrecision; image-rendering:optimizeQuality; fill-rule:evenodd; clip-rule:evenodd"
viewBox="0 0 6614.58 6614.58"
 xmlns:xlink="http://www.w3.org/1999/xlink"
 xmlns:xodm="http://www.corel.com/coreldraw/odm/2003">
 <defs>
  <style type="text/css">
   <![CDATA[
    .fil0 {fill:#0075D6}
    .fil3 {fill:#007EAF}
    .fil5 {fill:#00BFD3}
    .fil2 {fill:#00CFD3}
    .fil7 {fill:#00D406}
    .fil8 {fill:#2739B1}
    .fil6 {fill:#BE7726}
    .fil1 {fill:#C82C2D}
    .fil4 {fill:#D9C60C}
    .fil9 {fill:white}
   ]]>
  </style>
 </defs>
 <g id="Слой_x0020_1">
  <metadata id="CorelCorpID_0Corel-Layer"/>
  <g id="_2114129070560">
   <path class="fil0" d="M2255.84 2264.43l49.82 0.51c-1.5,54.32 -17.3,203.53 28.76,228.22 30.67,12.35 96.88,8.31 96.88,-31.17 0,-226.48 -21.13,-197.46 46.56,-197.47l3.53 253.89c-61.56,-1.07 -29.98,-10.42 -86.39,3.14 -151.55,36.42 -134.92,-73.54 -134.1,-172.44l-5.06 -84.68zm-217.75 0.1c158.64,-65.67 227.7,193.43 80.03,253.91 -73.59,30.14 -151.18,-12.13 -167.33,-77.47 -23.53,-95.1 21.13,-149.05 87.3,-176.44zm-338.8 366.72c15.71,-52.49 118.95,-15.83 56.4,-183.06 -23.19,-61.99 -53.04,-120.6 -76.14,-181.65l53.88 -1.42 67.12 198.33c15.12,-31.17 24.66,-70.95 35.51,-105.06 30.59,-96.22 10.9,-96.48 72.86,-91.51 -17.54,70.32 -59.46,143.89 -83.17,213.14 -11,32.16 -43.84,207.22 -126.46,151.23zm-502.65 -300.9c0,227.68 32.3,396.93 163.8,579.04 62.15,86.06 123.8,148.41 210.85,212.29 47.13,34.59 80.61,52.38 136.14,80.13 308.24,154.09 742.92,101.89 981.94,-121.58l60.99 -51.85c18.29,-18.29 25.87,-33.96 47.17,-56.26 115.07,-120.52 213.91,-361.22 213.91,-538.34 0,-175.55 -6.76,-284.4 -84.49,-442.08 -31.39,-63.66 -75.45,-142.25 -124.74,-194.97l-108.12 -108.15c-53.22,-50.82 -126.73,-92.92 -193.44,-126.26 -308.24,-154.09 -742.92,-101.89 -981.94,121.58l-108.16 108.11c-115.07,120.52 -213.91,361.22 -213.91,538.34z"/>
   <path class="fil1" d="M3293.53 3985.29c0,44.39 14.41,89.37 29.29,121.16l19.12 37.29c1.14,1.62 2.87,3.79 4.08,5.33l46.49 47.54c45.97,42.22 81.96,58.87 137.81,70.4 76.73,15.85 182.89,-4.89 246.53,-61.69l33.35 -32.47c97.9,-103.19 103.75,-283.57 15.97,-381.69 -34.97,-39.09 -68.95,-62.68 -116.87,-90.61 -59.08,-34.45 -241.78,-17.56 -322.66,67.55 -56.83,59.8 -93.11,129.37 -93.11,217.19z"/>
   <path class="fil2" d="M4638.17 1578.1c0,95.26 2.93,165.09 86.72,242.39 192.7,177.74 496.27,26.69 496.27,-176.57 0,-95.26 -2.93,-165.08 -86.72,-242.38 -192.7,-177.75 -496.27,-26.69 -496.27,176.56z"/>
   <path class="fil3" d="M4374.88 5076.05c0,95.26 2.93,165.08 86.73,242.38 192.69,177.75 496.26,26.69 496.26,-176.56 0,-95.26 -2.93,-165.09 -86.72,-242.39 -192.7,-177.75 -496.27,-26.69 -496.27,176.57z"/>
   <path class="fil4" d="M1695.01 4822.16l0 47.02c0,103.44 103.42,206.87 206.86,206.87l47.02 0c103.44,0 206.87,-103.43 206.87,-206.87l0 -47.02c0,-103.44 -103.43,-206.87 -206.87,-206.87l-47.02 0c-103.44,0 -206.86,103.43 -206.86,206.87z"/>
   <path class="fil5" d="M1168.43 3750.21c0,337.02 423.14,281.36 423.14,37.61 0,-337.02 -423.14,-281.35 -423.14,-37.61z"/>
   <path class="fil6" d="M4215.03 3186.03c0,21.37 36.27,131.51 126.16,135.5 26.33,1.17 59.86,-18.45 87.3,-34.87 19.96,-11.93 21.71,-12.35 33.34,-32.49 38.59,-66.88 -4.85,-166.81 -57.92,-191.9 -85.59,-40.47 -188.88,38.01 -188.88,123.76z"/>
   <path class="fil7" d="M3791.89 1991.84c0,211.77 235.08,155.87 235.08,37.61 0,-211.77 -235.08,-155.88 -235.08,-37.61z"/>
   <path class="fil7" d="M3528.61 5489.78c0,211.77 235.07,155.88 235.07,37.61 0,-211.77 -235.07,-155.87 -235.07,-37.61z"/>
   <path class="fil4" d="M5475.04 3580.96c0,155.03 179.98,134.76 185.26,17.68 5.65,-125.14 -185.26,-139.75 -185.26,-17.68z"/>
   <path class="fil8" d="M2625.91 4605.89c0,86.62 8.02,112.84 103.43,112.84 103.36,0 103.36,-188.06 0,-188.06 -45.74,0 -103.43,2.16 -103.43,75.22z"/>
   <path class="fil9" d="M2048.51 2288.75c118.96,-39.45 136.36,179.24 46.16,207.05 -115.11,35.48 -133.59,-178.06 -46.16,-207.05zm-10.42 -24.22c-66.17,27.39 -110.83,81.34 -87.3,176.44 16.15,65.34 93.74,107.61 167.33,77.47 147.67,-60.48 78.61,-319.58 -80.03,-253.91z"/>
   <path class="fil4" d="M2889.2 1117.35c0,141.59 178.66,141.59 178.66,0 0,-114.87 -178.66,-114.87 -178.66,0z"/>
   <path class="fil0" d="M2048.51 2288.75c-87.43,28.99 -68.95,242.53 46.16,207.05 90.2,-27.81 72.8,-246.5 -46.16,-207.05z"/>
   <path class="fil9" d="M2260.9 2349.11c-0.82,98.9 -17.45,208.86 134.1,172.44 56.41,-13.56 24.83,-4.21 86.39,-3.14l-3.53 -253.89c-67.69,0.01 -46.56,-29.01 -46.56,197.47 0,39.48 -66.21,43.52 -96.88,31.17 -46.06,-24.69 -30.26,-173.9 -28.76,-228.22l-49.82 -0.51 5.06 84.68z"/>
   <path class="fil9" d="M1699.29 2631.25c82.62,55.99 115.46,-119.07 126.46,-151.23 23.71,-69.25 65.63,-142.82 83.17,-213.14 -61.96,-4.97 -42.27,-4.71 -72.86,91.51 -10.85,34.11 -20.39,73.89 -35.51,105.06l-67.12 -198.33 -53.88 1.42c23.1,61.05 52.95,119.66 76.14,181.65 62.55,167.23 -40.69,130.57 -56.4,183.06z"/>
  </g>
 </g>
</svg>
