<?xml version="1.0" encoding="UTF-8"?>
<!DOCTYPE svg PUBLIC "-//W3C//DTD SVG 1.1//EN" "http://www.w3.org/Graphics/SVG/1.1/DTD/svg11.dtd">
<!-- Creator: CorelDRAW -->
<svg xmlns="http://www.w3.org/2000/svg" xml:space="preserve" width="66.1458mm" height="66.1458mm" version="1.1" style="shape-rendering:geometricPrecision; text-rendering:geometricPrecision; image-rendering:optimizeQuality; fill-rule:evenodd; clip-rule:evenodd"
viewBox="0 0 6614.58 6614.58"
 xmlns:xlink="http://www.w3.org/1999/xlink"
 xmlns:xodm="http://www.corel.com/coreldraw/odm/2003">
 <defs>
  <style type="text/css">
   <![CDATA[
    .fil1 {fill:#0075D6}
    .fil4 {fill:#00BFD3}
    .fil2 {fill:#00CFD3}
    .fil5 {fill:#00D406}
    .fil3 {fill:#D9C60C}
    .fil0 {fill:#F52294}
    .fil6 {fill:white}
   ]]>
  </style>
 </defs>
 <g id="Слой_x0020_1">
  <metadata id="CorelCorpID_0Corel-Layer"/>
  <image id="tip_2.png" x="-3.17" y="-3.17" width="6599.8" height="6599.8" xlink:href="Безымянный-1_Images\Безымянный-1_ImgID1.png"/>
  <g id="_2114934555472">
   <path class="fil0" d="M4230.84 4249.62c-123.85,0 -189.41,-122.75 -112.56,-224.85 66.57,-88.45 215.87,-53.7 193.06,89.95l-178.39 3.46c17.61,146.11 133.51,88.07 175.72,103.27 -14.35,36.19 -25.74,28.17 -77.83,28.17zm-582.06 0c-123.85,0 -189.41,-122.75 -112.56,-224.85 66.58,-88.47 215.87,-53.69 193.06,89.95l-178.39 3.46c5.66,46.92 22.15,78.78 59.2,95.06 24.06,10.58 36.82,8.77 65.92,7.02 22.88,-1.39 11.69,-2.5 30.93,-2.07 25.03,0.56 12.7,0.76 19.67,3.26 -14.35,36.2 -25.71,28.17 -77.83,28.17zm718.16 -9.39c1.31,-47.19 6.63,-93.89 5.53,-141.07 -0.95,-40.45 -10.28,-78.89 -7.3,-117.79 92.23,-5.29 3.05,18.84 68.29,9.96 28.87,-3.94 28.25,-17.94 78.65,-13.35 28.4,2.58 54.73,18.74 65.23,18.77 8.13,0.03 42.77,-16.65 67.46,-18.85 136.99,-12.16 100.54,146.94 100.54,260.52l-49.19 1.81c4.7,-62.39 19.62,-163.06 -5.89,-215.93 -47.73,-36.73 -77.02,-16.93 -108.81,11l1.47 204.93c-63.62,0 -50.18,-5.3 -48.62,-47.96 2.78,-75.96 32.46,-252.47 -117.69,-165.24l0.17 211.99 -49.84 1.21zm-573.33 -258.86l44.02 5.46c53.09,13.12 114.08,-38.27 163.47,13.99 31.96,33.82 20.4,177.29 21.38,238.2l-49.84 1.21c4.05,-73.01 46.19,-321.98 -125.93,-210.57l-0.78 210.57 -44.1 -0.08 -8.22 -258.78zm1023.6 371.52c16.06,-54 117.28,-15.15 56.09,-182.55 -22.37,-61.22 -53.61,-121.04 -75.81,-181.56l54.31 -1.55 69.71 201.64c5.09,-30.92 19.42,-69.61 29.54,-101.64 32.78,-103.76 14.17,-103.07 75.4,-98.1 -16.02,68.56 -59.14,144.7 -82.83,213 -10.74,30.97 -43.65,206.83 -126.41,150.76zm-1975.8 -347.36c0,179.45 -8.75,378.43 59.26,541.57 0.86,2.06 2.05,4.42 2.89,6.5 0.85,2.1 1.94,4.49 2.76,6.63 0.84,2.16 1.75,4.63 2.54,6.84 24.58,68.74 61.37,172.17 98.87,229.72l271.99 338.23c26.38,28.71 4.54,16.24 42.1,42.4 62.92,43.8 123.43,97.26 188.67,130.52 29.38,14.98 21.81,16.91 50.61,33.88 20.34,11.99 35.77,17.83 58,26.49 12.58,4.9 38.55,13.13 54.33,20.77l143.68 53.48c2.16,0.8 4.57,1.85 6.68,2.7l25.38 12.18c143.61,58.92 620.33,60.07 764.9,1.55 50,-20.23 127.78,-40.83 177.44,-66.64 15.65,-8.13 44.62,-18.96 59.27,-25.23l162.93 -90.55c2.16,-1.7 7.86,-7.05 10.02,-8.75l70.75 -51.3c6.68,-5.67 11.19,-9.74 20.79,-16.76 96.72,-70.69 193.68,-172.95 261.74,-273.38 114.81,-169.39 133.7,-212.04 196.4,-404.43 69.45,-213.06 56.25,-292.4 56.25,-516.42 0,-205.83 -63.28,-388.09 -152.51,-570.37l-163.62 -240.07c-30.88,-46.78 -154.28,-157.13 -204.57,-199.12l-147.82 -96.27c-1.71,-1.06 -3.99,-2.61 -5.64,-3.74 -1.62,-1.13 -3.7,-2.94 -5.28,-4.11l-146.33 -78.98c-170.71,-59.31 -267.03,-102.89 -469.78,-102.89 -218.93,0 -397.63,0.74 -597.32,78.62l-107.46 42.75c-75.35,45.79 -132.26,66.68 -212.51,125.45l-134.14 109.96c-37.09,47.2 -87.7,73.6 -121.68,122.4l-133.6 194.98c-1.13,1.63 -2.94,3.71 -4.11,5.28 -59.34,79.36 -81.27,173.32 -121.02,263.89 -10.37,23.64 -3.98,5.36 -11.49,26.07 -36.11,99.59 -49.37,210.05 -49.37,326.15z"/>
   <path class="fil1" d="M2227.84 2278.03l49.74 0.51c-1.49,54.23 -17.27,203.2 28.71,227.86 30.63,12.33 96.73,8.29 96.73,-31.12 0,-226.12 -21.1,-197.15 46.49,-197.16l3.52 253.48c-61.46,-1.07 -29.93,-10.4 -86.25,3.14 -151.31,36.36 -134.71,-73.43 -133.89,-172.17l-5.05 -84.54zm-217.41 0.1c158.4,-65.56 227.34,193.12 79.91,253.5 -73.47,30.1 -150.94,-12.1 -167.07,-77.34 -23.48,-94.95 21.1,-148.81 87.16,-176.16zm-338.25 366.13c15.68,-52.4 118.76,-15.8 56.31,-182.76 -23.15,-61.9 -52.96,-120.41 -76.01,-181.36l53.79 -1.42 67.01 198.01c15.09,-31.12 24.62,-70.83 35.45,-104.89 30.55,-96.06 10.88,-96.33 72.75,-91.36 -17.51,70.2 -59.37,143.66 -83.04,212.8 -10.98,32.1 -43.78,206.89 -126.26,150.98zm-501.84 -300.42c0,227.32 32.24,396.3 163.53,578.12 62.05,85.92 123.61,148.17 210.52,211.95 47.05,34.54 80.48,52.29 135.92,80.01 307.75,153.84 741.73,101.72 980.37,-121.39l60.89 -51.77c18.26,-18.26 25.83,-33.91 47.09,-56.17 114.89,-120.33 213.57,-360.64 213.57,-537.48 0,-175.27 -6.74,-283.95 -84.35,-441.38 -31.34,-63.56 -75.34,-142.02 -124.54,-194.65l-107.95 -107.98c-53.14,-50.74 -126.53,-92.77 -193.13,-126.06 -307.75,-153.85 -741.73,-101.72 -980.37,121.39l-107.99 107.94c-114.89,120.33 -213.56,360.64 -213.56,537.47z"/>
   <path class="fil2" d="M4606.36 1592.8c0,95.11 2.93,164.82 86.59,242 192.39,177.46 495.47,26.64 495.47,-176.28 0,-95.11 -2.92,-164.83 -86.58,-242 -192.39,-177.47 -495.48,-26.65 -495.48,176.28z"/>
   <path class="fil3" d="M1667.9 4831.68l0 46.94c0,103.27 103.26,206.53 206.54,206.53l46.94 0c103.28,0 206.54,-103.26 206.54,-206.53l0 -46.94c0,-103.28 -103.26,-206.54 -206.54,-206.54l-46.94 0c-103.28,0 -206.54,103.26 -206.54,206.54z"/>
   <path class="fil4" d="M1142.17 3761.44c0,336.48 422.46,280.91 422.46,37.55 0,-336.48 -422.46,-280.91 -422.46,-37.55z"/>
   <path class="fil5" d="M3761.44 2005.87c0,211.43 234.7,155.63 234.7,37.56 0,-211.44 -234.7,-155.63 -234.7,-37.56z"/>
   <path class="fil6" d="M4366.94 4240.23l49.84 -1.21 -0.17 -211.99c150.15,-87.23 120.47,89.28 117.69,165.24 -1.56,42.66 -15,47.96 48.62,47.96l-1.47 -204.93c31.79,-27.93 61.08,-47.73 108.81,-11 25.51,52.87 10.59,153.54 5.89,215.93l49.19 -1.81c0,-113.58 36.45,-272.68 -100.54,-260.52 -24.69,2.2 -59.33,18.88 -67.46,18.85 -10.5,-0.03 -36.83,-16.19 -65.23,-18.77 -50.4,-4.59 -49.78,9.41 -78.65,13.35 -65.24,8.88 23.94,-15.25 -68.29,-9.96 -2.98,38.9 6.35,77.34 7.3,117.79 1.1,47.18 -4.22,93.88 -5.53,141.07z"/>
   <path class="fil6" d="M2020.84 2302.31c118.77,-39.39 136.14,178.95 46.08,206.72 -114.92,35.42 -133.36,-177.78 -46.08,-206.72zm-10.41 -24.18c-66.06,27.35 -110.64,81.21 -87.16,176.16 16.13,65.24 93.6,107.44 167.07,77.34 147.43,-60.38 78.49,-319.06 -79.91,-253.5z"/>
   <path class="fil3" d="M2860.19 1132.78c0,141.36 178.37,141.36 178.37,0 0,-114.69 -178.37,-114.69 -178.37,0z"/>
   <path class="fil1" d="M2020.84 2302.31c-87.28,28.94 -68.84,242.14 46.08,206.72 90.06,-27.77 72.69,-246.11 -46.08,-206.72z"/>
   <path class="fil6" d="M3801.83 4240.15l44.1 0.08 0.78 -210.57c172.12,-111.41 129.98,137.56 125.93,210.57l49.84 -1.21c-0.98,-60.91 10.58,-204.38 -21.38,-238.2 -49.39,-52.26 -110.38,-0.87 -163.47,-13.99l-44.02 -5.46 8.22 258.78z"/>
   <path class="fil6" d="M2232.89 2362.57c-0.82,98.74 -17.42,208.53 133.89,172.17 56.32,-13.54 24.79,-4.21 86.25,-3.14l-3.52 -253.48c-67.59,0.01 -46.49,-28.96 -46.49,197.16 0,39.41 -66.1,43.45 -96.73,31.12 -45.98,-24.66 -30.2,-173.63 -28.71,-227.86l-49.74 -0.51 5.05 84.54z"/>
   <path class="fil6" d="M3552.06 4090.02c17.44,-109.91 125.65,-120.68 135.7,-4.58l-135.7 4.58zm96.72 159.6c52.12,0 63.48,8.03 77.83,-28.17 -6.97,-2.5 5.36,-2.7 -19.67,-3.26 -19.24,-0.43 -8.05,0.68 -30.93,2.07 -29.1,1.75 -41.86,3.56 -65.92,-7.02 -37.05,-16.28 -53.54,-48.14 -59.2,-95.06l178.39 -3.46c22.81,-143.64 -126.48,-178.42 -193.06,-89.95 -76.85,102.1 -11.29,224.85 112.56,224.85z"/>
   <path class="fil6" d="M4134.12 4090.02c17.45,-109.94 125.65,-120.67 135.7,-4.58l-135.7 4.58zm96.72 159.6c52.09,0 63.48,8.02 77.83,-28.17 -42.21,-15.2 -158.11,42.84 -175.72,-103.27l178.39 -3.46c22.81,-143.65 -126.49,-178.4 -193.06,-89.95 -76.85,102.1 -11.29,224.85 112.56,224.85z"/>
   <path class="fil6" d="M4817.21 4352.89c82.76,56.07 115.67,-119.79 126.41,-150.76 23.69,-68.3 66.81,-144.44 82.83,-213 -61.23,-4.97 -42.62,-5.66 -75.4,98.1 -10.12,32.03 -24.45,70.72 -29.54,101.64l-69.71 -201.64 -54.31 1.55c22.2,60.52 53.44,120.34 75.81,181.56 61.19,167.4 -40.03,128.55 -56.09,182.55z"/>
   <path class="fil6" d="M1672.18 2644.26c82.48,55.91 115.28,-118.88 126.26,-150.98 23.67,-69.14 65.53,-142.6 83.04,-212.8 -61.87,-4.97 -42.2,-4.7 -72.75,91.36 -10.83,34.06 -20.36,73.77 -35.45,104.89l-67.01 -198.01 -53.79 1.42c23.05,60.95 52.86,119.46 76.01,181.36 62.45,166.96 -40.63,130.36 -56.31,182.76z"/>
   <path class="fil0" d="M4134.12 4090.02l135.7 -4.58c-10.05,-116.09 -118.25,-105.36 -135.7,4.58z"/>
   <path class="fil0" d="M3552.06 4090.02l135.7 -4.58c-10.05,-116.1 -118.26,-105.33 -135.7,4.58z"/>
  </g>
 </g>
</svg>
