<?xml version="1.0" encoding="UTF-8"?>
<!DOCTYPE svg PUBLIC "-//W3C//DTD SVG 1.1//EN" "http://www.w3.org/Graphics/SVG/1.1/DTD/svg11.dtd">
<!-- Creator: CorelDRAW -->
<svg xmlns="http://www.w3.org/2000/svg" xml:space="preserve" width="66.1458mm" height="66.1458mm" version="1.1" style="shape-rendering:geometricPrecision; text-rendering:geometricPrecision; image-rendering:optimizeQuality; fill-rule:evenodd; clip-rule:evenodd"
viewBox="0 0 6614.58 6614.58"
 xmlns:xlink="http://www.w3.org/1999/xlink"
 xmlns:xodm="http://www.corel.com/coreldraw/odm/2003">
 <defs>
  <style type="text/css">
   <![CDATA[
    .fil6 {fill:#00C601}
    .fil1 {fill:#00C700}
    .fil0 {fill:#00C800}
    .fil7 {fill:#00CE00}
    .fil10 {fill:#00D100}
    .fil9 {fill:#00D200}
    .fil11 {fill:#00D400}
    .fil20 {fill:#00D700}
    .fil4 {fill:#00DB00}
    .fil22 {fill:#00DD00}
    .fil26 {fill:#00E100}
    .fil32 {fill:#00E500}
    .fil34 {fill:#00EA00}
    .fil15 {fill:#00EE00}
    .fil33 {fill:#00F200}
    .fil2 {fill:#01B102}
    .fil3 {fill:#01B401}
    .fil60 {fill:#11B911}
    .fil8 {fill:#13CA13}
    .fil18 {fill:#14BD14}
    .fil41 {fill:#1AC31A}
    .fil73 {fill:#1BBC1B}
    .fil69 {fill:#1EBA20}
    .fil63 {fill:#23BE23}
    .fil16 {fill:#23C824}
    .fil84 {fill:#23CD23}
    .fil17 {fill:#24C324}
    .fil67 {fill:#25D025}
    .fil86 {fill:#2ABC2B}
    .fil12 {fill:#2BCC2B}
    .fil72 {fill:#2BD12B}
    .fil68 {fill:#2CC22C}
    .fil52 {fill:#2FC830}
    .fil42 {fill:#32BD34}
    .fil75 {fill:#33C333}
    .fil13 {fill:#33CC33}
    .fil65 {fill:#34D234}
    .fil49 {fill:#3BC53C}
    .fil51 {fill:#3BCB3B}
    .fil70 {fill:#3BD33B}
    .fil85 {fill:#43D443}
    .fil31 {fill:#44CA44}
    .fil56 {fill:#4AC54B}
    .fil39 {fill:#4BD34B}
    .fil48 {fill:#4CCB4C}
    .fil28 {fill:#50CD50}
    .fil38 {fill:#54CD54}
    .fil71 {fill:#56D856}
    .fil44 {fill:#5BCE5B}
    .fil62 {fill:#5CD35C}
    .fil21 {fill:#5ECD60}
    .fil64 {fill:#63D263}
    .fil53 {fill:#63DC63}
    .fil19 {fill:#6BDB6B}
    .fil30 {fill:#6CD46C}
    .fil61 {fill:#6DE06D}
    .fil76 {fill:#73D673}
    .fil36 {fill:#76D976}
    .fil24 {fill:#78E178}
    .fil54 {fill:#7CDA7C}
    .fil59 {fill:#81D97E}
    .fil47 {fill:#8CDD8C}
    .fil58 {fill:#92DE92}
    .fil43 {fill:#94E294}
    .fil87 {fill:#99E999}
    .fil27 {fill:#9BE29B}
    .fil74 {fill:#A2E4A2}
    .fil50 {fill:#A8EAA8}
    .fil35 {fill:#ABE5AB}
    .fil45 {fill:#B4EAB4}
    .fil46 {fill:#B9EEB9}
    .fil29 {fill:#BBEBBB}
    .fil83 {fill:#C3F2C3}
    .fil14 {fill:#C4EDC4}
    .fil66 {fill:#CAEECA}
    .fil23 {fill:#CDF1CC}
    .fil40 {fill:#D3F3D3}
    .fil25 {fill:#DCF5DC}
    .fil55 {fill:#DEF8DE}
    .fil78 {fill:#E3F6E3}
    .fil79 {fill:#E5F9E5}
    .fil81 {fill:#E8F9E8}
    .fil57 {fill:#F0F0F3}
    .fil77 {fill:#F5F1F5}
    .fil82 {fill:#F6E5F1}
    .fil80 {fill:#F8EAF5}
    .fil37 {fill:#F8F9F9}
    .fil5 {fill:#FDFEFD}
   ]]>
  </style>
 </defs>
 <g id="Слой_x0020_1">
  <metadata id="CorelCorpID_0Corel-Layer"/>
  <path class="fil0" d="M2014.51 3889.39l-7.21 -6.05c-45.74,27.14 -172.49,32.91 -205.49,-20.43 22.63,-39.6 61.62,-83.15 101.59,-102.27 58.52,-28.01 77.23,-58.25 120.12,-107.12 70.67,-80.53 44.7,-42.18 111.34,-84.25 52.22,-32.96 50.07,-66.09 116.99,-95.86 30.54,34.7 157.27,386.41 154.22,426.75 -60.03,40.3 -114,9.77 -193.73,10.19 -67.85,0.36 -133.71,-0.04 -197.83,-20.96zm938.76 457.5c131.2,41.39 392.25,68.06 457.72,105.43l-89.69 143.44c-41.71,107.29 -107.41,160.61 -160.65,267.77 -50.72,102.13 -126.05,207.76 -139.38,25.48 -11.37,-155.69 -38.12,-126.03 -48.23,-271.77 -4.73,-68.1 -76.52,-221.23 -19.77,-270.35zm23.81 -477l-51.79 50.47c-36.73,46.07 -73.3,90.6 -131.68,65.04 -5.5,-68.8 40.64,-83.65 65.43,-146.74 20.7,-52.71 45.07,-116.76 99.18,-145.4 40.91,24.74 89.75,61.5 114.71,101.58 -7.11,28.27 -9.54,33.64 -33.67,55.71 -34.54,31.62 -46.83,21.48 -62.18,19.34zm338.1 29.44c42.2,-44.11 122.09,-57.28 180.45,-37 36.15,67.94 8.9,125.72 -2.71,190.64 -10.61,59.3 -2.47,157.49 -57.11,189.56 -40.01,-30.34 -96.21,-279.03 -120.63,-343.2zm-593.13 -451.54c-19.83,7.81 -4.14,7.67 -36.45,7.88 -22.89,0.15 -14.94,-1.68 -36.8,-6.01l-161.11 -24.01c-34.21,-3.73 -43.22,2.36 -62.53,-36.21 19.49,-25.65 153.98,-63.79 187.27,-55.56 24.71,-19.3 221.35,-98.17 228.46,-22.24l5.4 63.86c2.75,35.26 10.02,53.76 -28.18,96.22l-96.06 -23.93zm1077.6 343.02c-39.51,21.24 -46.93,1.78 -77.41,-34.42 9,-53.74 78.96,-125.59 126.7,-154.97 41.05,19.42 57.88,47.69 72.46,85.28 15.89,40.99 57.19,68.62 90.35,104.06l-13.24 29.57c27.42,22.99 74.04,68.65 73.27,105.12 -53.31,14.17 -40.94,-21.01 -143.58,-63.94 -44.93,-18.79 -97.38,-60.57 -128.55,-70.7zm-1525.78 -1227.77l-4.13 4.9c-38.2,-32.01 -185.02,-309.01 -178.2,-341.72 36.03,-16.72 253.7,72.53 311.56,88.6 43.93,12.2 121.72,49.31 159.37,59.26 48.57,12.83 127.42,18.38 127.81,45.95 -21.16,64.8 -263.81,353.88 -324.04,356.42 -7.6,-5.83 -44.1,-77.54 -50.13,-93.84 -24.55,-66.38 -62.56,-57.37 -42.24,-119.57zm636.12 284.08c62.22,-22.95 93.47,4.43 126.8,63.51 -32.53,41.82 -83.54,120.46 -126.99,137.66 -68.46,-3.21 -78.04,-72.02 -105.81,-111.41 -39.49,-56.04 -100.41,-68.12 -88.07,-146.96 -33.68,-12.17 -54.26,-46.98 -63.02,-81.78 57.72,-7.12 76.88,37.4 128.3,58.75 42.44,17.62 106.47,34.87 128.79,80.23zm1396.6 1454.39l-98.56 -40.14c-48.43,11.92 -96.62,-3.99 -129.5,-48.42 27.38,-51.07 242.36,-307.77 283.29,-318.81 50.72,15.51 54.62,68.72 78.41,111 41.48,73.73 180.27,318.99 176.94,381.49 -85.43,15.79 -71.74,-5.52 -150.54,-28.74 -42.82,-12.63 -122.35,-28.21 -160.04,-56.38zm-360.16 -1676.76c78.07,60.3 -15.73,110.39 -41.48,170.33 -1.26,2.94 -19.24,114.62 -107.5,167.63 -34.9,-11.79 -90.2,-58.69 -114.04,-87.92 -35.12,-43.05 13.95,-60.11 52.99,-100.01 56.36,-57.6 56.17,-29.02 100.39,-63.16 39.39,-30.43 57.25,-74.61 109.64,-86.87zm-29.92 749.68c-17.9,-35.33 -2.21,-43.65 -9.1,-86.75 -9.43,-58.9 -19.92,-49.77 27.78,-102.6 66.97,2.39 304.04,28.02 336.59,77.06 -32.68,51.98 -117.44,60.01 -176.12,77.13 -51.49,15.01 -128.74,51.93 -179.15,35.16zm-531.66 -718.1l30.07 95.74c-32.76,25.88 -109.1,30.73 -148.03,27.69l-18.12 -59.01c-11.48,-40.88 3.44,-104.62 10.55,-175.06l32.85 -165.37c51.83,20.02 46.37,81.93 59.79,121.2 40.28,117.82 22.65,30.86 32.89,154.81zm1204.24 422.63l7.2 7.17c-132.9,154.65 -130.67,27.87 -179.76,-97.59 -16.26,-41.55 -85.27,-222.38 -85.9,-247.26 29.57,-15.17 569.07,16.5 616.31,44.77l-273.31 255.4c-40.96,-19.17 -6.41,35.78 -84.54,37.51zm-785.02 -786.16c-53.29,-2.98 -160.74,-31.85 -220.82,-42.99 -83.45,-15.47 -167.09,-11.63 -230.69,-66.75 30.85,-60.88 287.06,-463.95 319.58,-491.39 61.87,46.43 136.25,587.65 131.93,601.13zm435.36 -562.42l-229.97 -125.72c-56.36,15.69 -20.21,0.53 -68.75,-14.95 -33.9,-10.81 -12.5,5.55 -49.92,-5.24 -31.48,-9.07 -12.6,-12.63 -54.38,-18.61 -21.3,-3.04 -8.92,4.32 -47.06,-8.99l-1681.66 440.03c-67.94,76.91 -134.91,154.07 -201.02,232.59 -30.84,36.63 -71.84,76.31 -85.06,120.16 -17.16,56.92 -12.85,75.45 -66.52,118.31l-39.9 49c33.21,33.83 0.01,67.26 -28.32,102.76 -11.81,47.97 23.06,12.36 -32.48,81.32l-22.44 28.84c28.04,59.64 3.25,13.81 -16.05,121.46 -5.11,28.48 -7.24,15.78 -15.28,42.75 -21.68,72.79 -26.32,138.17 -34.19,172.08 -30.82,132.91 -1.12,72.7 -24.37,169.84 -12.77,53.26 14.69,115.79 4.31,170.83 -8.53,23.08 17.68,180.31 15.75,222.32l8.15 58.88c18.46,32.27 15.09,25.59 21.71,58.87 9.6,48.28 19.06,33.47 0.24,72.96l6.52 2.23c43.61,30.43 32.91,29.22 42.73,72.48 9.47,41.72 30.96,32.25 16.93,79.42 48.85,43.52 140.71,278.62 186.16,357.24 24.59,42.55 51.19,37.49 77.56,81.35 28.88,48.04 4.79,42.6 61.25,92.07 66.94,58.63 123.88,116.69 188.61,175.68 62.05,56.54 129.79,98.65 192.79,151.79 93.16,78.58 130.26,66.46 202.92,128.09 56.84,48.21 300.14,111.61 387.34,137.55 56.97,51.07 60.93,-5.44 113.45,47.72 34.9,-15.15 47.99,-11.18 80.67,12.6 32.63,-20.25 105.48,-9 139,12.15l-7.64 -2.62 27.29 -16.11 28.88 15.48 4 -0.51 24.71 -17.28 38.62 16.2 12.51 -16.13c59.19,14.94 29.53,-7.26 80.94,6.82l3.35 4.51 25.11 -20.11 78.4 8.35c76.43,-41.77 24.25,32.67 105.89,-44.04 56.27,11.88 5.38,7.33 52.98,1.48 19.57,-2.4 43.72,-3.24 60.72,-3.7l27.94 6.76c57.95,-48.43 32.15,-28.64 98.04,-49.64 49.59,-15.81 73.87,-44.8 110.42,-26.81 53.85,-23.72 10.85,-28.84 88.76,-35.23 51.63,-44.87 59.38,-20.42 92.17,-55.11 67.71,-70.48 49.13,-28.13 97.98,-62.63 48.65,-34.34 36.46,-38.21 98.86,-67.26 43.84,-20.42 52.67,-51.91 93.39,-83.34 45.05,-34.78 61.66,-19.87 103.42,-60.28 62.99,-60.97 133.29,-147.15 189.78,-215.57 165.17,-200.07 43.27,-119.87 137.27,-225.79l26.41 -21.48c1.35,-6.63 20.41,-72.37 24.59,-84.42 10.48,-30.12 33.23,-65.19 56.14,-86.62l6.15 -1.46c-21.52,-61.83 14.24,-49.59 25.65,-116.57 7.47,-43.8 17.15,-35.93 34.13,-90.71 0.7,-2.23 0.94,-5.22 1.62,-7.33 0.67,-2.11 1.57,-5.28 2.22,-7.15l6.8 -14.4 10.05 -39.65c6.94,-34.85 -2.61,-12.32 0.14,-33.28 4.21,-32.05 20.4,-28.57 26,-66.61 -23.28,-81.4 22.65,-93.07 18.76,-147.87 -0.09,-1.46 -1.68,-16.88 -2.06,-21.75 -1.98,-25.74 -0.17,-15.36 -6.93,-44.37 -4.01,-42.96 -3.37,-120.49 19.89,-161.83 -22.12,-25.97 -10.41,-9.58 -6.31,-26.43 -11.3,-31.94 -18.63,-40.81 -4.35,-75.92l-6.69 -8.33 -10.51 -23.01 16.96 -23.41c-26.06,-30.47 -24.62,-24.84 -4.57,-61.31l4.3 -17.83 -6.86 -5.92 -21.36 -52.19c-16.62,-27.05 -27.54,-70.47 -16.99,-101.68l-18.72 -33.6 14.9 -21.39c-43.11,-47.05 -16.92,-46.6 -41.01,-82.73 -42.06,-32.71 -23.78,-26.04 -37.6,-69.44l-59.9 -129.3c-18.94,-47.39 23.38,-2.97 -23.24,-63.03 -35.5,-45.73 -19.78,-11.67 -34.17,-60.76 -14.83,-50.57 -15.01,-19.8 -42.77,-63.68 -25.41,-40.14 2.73,-26.13 -30.33,-65.22 -30.41,-35.98 -44.59,-19.73 -51.22,-64.41 -22.84,-44.92 5.75,-26.09 -45.49,-72.84l-221.55 -215.01c-54.7,-47.18 -105.2,-73.6 -159.71,-115.2 -48.71,-37.16 -100.9,-110.24 -164.88,-99.16z"/>
  <path class="fil1" d="M3714.16 1535.46c-53.35,-33.42 -56.22,6.24 -114.98,-40.24l7.76 4.06 -28.71 16.31 -29.46 -17.39c-34.43,18.87 -69.56,4.3 -103.5,10.92l-1060.83 293.18c-47.99,6.62 -90.21,53.51 -130.78,90.71 -61.43,56.33 -77.14,27.62 -145.97,103.89l1681.66 -440.03 -75.19 -21.41z"/>
  <path class="fil2" d="M2752.05 1193.81c-22.3,25.35 -29.61,78.83 -63.89,126.41 15.55,21.27 6.93,29.71 -10.51,49 1.47,32 2.04,8.58 -3.24,36.73 -0.19,0.94 -6.13,26.01 -6.96,29.57 -6.03,25.69 -6.23,32.38 -22.95,53.12l-15.81 86.72c114.34,-36.82 179.86,-36.19 202.9,-45.01 47.46,-18.17 7.75,-18.13 69.85,-21.3l308.44 -64.16 21.03 -32.09c-6.4,-20.07 -7.91,-15.4 -12.18,-26.01 -9.73,-24.14 -3.96,-3.79 -7.34,-26.22l-82.36 -66.51 -298.85 -253.23c-49.28,72.1 -17.54,87.22 -78.13,152.98z"/>
  <path class="fil3" d="M4120.09 1658.97c-42.57,-1.19 -64.73,-21.09 -74.5,-60.25 27.35,-23.62 32.66,-26.45 66.37,7.69 29.47,29.86 21.59,28.6 8.13,52.56zm31.57 -449.47l-50.39 56.2c-27.41,36.28 -36.38,46.03 -80.58,42.31 -52.14,112.01 -117.32,48.68 -187.41,161.39 16.16,11.33 75.96,57.05 90.68,62.72 40.27,15.46 28.62,-22.69 92.78,45.2l-7.28 27.34 229.97 125.72c-31.92,-20.96 -69.86,-47.36 -82.59,-80.2 40.86,-37.78 63.79,0.79 103.24,35.48 56.16,-13.33 76.84,-5.41 120.38,46.92 12.11,-34.04 3.32,-39.75 4.59,-74.58l-7.57 -44.78c-21.34,-31.87 -16.59,-23.99 -10.5,-62.62 -11.89,-35.08 -10.62,-12.69 0.09,-40.6 -29.67,-29 -46.87,-96.61 -33.17,-140.25 -9.07,-31.53 -12.08,-17.96 0.73,-38.69l-29.11 -44 14.95 -21.47c-47.17,-51.83 0.31,-68.56 -57.06,-115.27 -17.31,14.69 -35.33,31.58 -52.84,45.84 -30.42,24.76 -32.41,29.71 -58.91,13.34z"/>
  <path class="fil3" d="M3829.48 5145.08c-35.72,7.68 -76.77,26.54 -118.47,38.28 -33.33,9.38 -78.1,13.15 -109.69,15.68 -52.04,24.52 -62.37,6 -90.85,50.23l73.3 84.95 333.27 288.91c55.96,-66.76 19.45,-56.7 54.83,-121.67 41.11,-75.53 9.91,-81.14 54.84,-123.78 -24.99,-49.83 2.85,-66.38 31.86,-113.21 -18.33,-33.57 10.34,-76.76 38.73,-98.56 -0.32,-52.73 -8.12,-40.74 25.31,-91.08 -34.62,26.67 -107.87,37.08 -147.07,38.82 -72.89,3.23 -23.03,-5.01 -79.71,20.73 -18.07,8.21 -55.4,9.95 -66.35,10.7z"/>
  <path class="fil3" d="M5253.5 3283.25c16.72,30.42 9.57,8.23 9.35,39.88 -0.6,84.77 -5.88,44.66 -20.03,114.54l-1.56 99.28c0.18,45.21 -31.22,104.5 -18.01,100.13 2.07,-0.68 0.2,6.82 -0.25,10.18 -8.55,39.5 10.36,12.19 3.87,58.2 -5.94,42 -20.53,20.02 -3.65,64.21l-19.28 23.67 23.73 19.35c12.58,-24.03 143.27,-81.73 173.59,-100.78 40.5,-25.44 53.01,-27.05 83.17,-44.45 38.14,-22.01 47.45,-58.44 91.98,-40.17 29.66,-46.89 61.74,-70.74 115.79,-66.75l35.06 -33.85 -324.53 -277.11 -24.23 9.92 -90.39 -62.47c-19.86,27.79 4.95,31.85 -34.61,86.22z"/>
  <path class="fil3" d="M1451.77 2878.71c-12.43,36.26 -57.01,78.05 -93.17,64.01 -34.2,28.97 -44.01,54.23 -84.2,40.4 -27.21,12.49 -29.1,22.5 -52.26,37.49 -42.19,27.31 -12.86,-0.38 -48.52,16.66 -30.53,14.59 -35.42,40.27 -84.22,47.91 -14.96,2.34 -12.72,1.09 -27.29,0.72l4.93 3.93 -39.08 44.13 385.36 323.06 46.37 19.87c41.47,-58.51 21.89,-189.01 40.48,-253.45 15.87,-55.03 14.85,-5.47 10.05,-66.46 -10.27,-130.63 9.57,-123.12 9.55,-195.03 14.15,-59.92 -13.79,-35.06 19.81,-103.11l0.48 -12.58c-43.24,26.46 -39.73,27.93 -88.29,32.45z"/>
  <path class="fil3" d="M5290.58 2091.62l-18.08 -17.19 4.39 4.99 -26.45 17.46c-56.49,-19.38 -121.98,14.84 -167.65,-22.87l5.11 -5.28c-24.23,13.95 -137.67,14.04 -167.19,1.67 -28.98,16.21 -19.01,17.8 -52.92,7.28l-35.19 19.64c15.81,44.41 24.92,29.8 39.79,59.62 18.43,36.97 -10.28,7.23 11.37,47.69 38.86,72.64 51.23,0.8 51.47,108.39 65.55,52.88 66.1,27.72 62.74,102.59 102.71,66.52 59.96,101.96 144.68,173.23 35.03,-23.7 33.52,-35.93 54.8,-73.58 5.37,-42.78 33.14,-74.88 60.29,-109.24l30.83 -35.4 -13.32 -22.26 49.36 -77.08c45.03,-34.18 9.31,-57.81 61.8,-99.07 0.09,-20.67 -22.31,5.4 9.67,-37.43l-17.29 18.39c-37.32,-41.62 -5.26,-0.29 -21.01,-45.29 -26.04,-1.97 -42.88,9.96 -67.2,-16.26z"/>
  <path class="fil3" d="M1540.08 4139.42c-0.42,0.59 -65.69,129.11 -67.92,134.57 -23.22,56.73 -10.78,56.53 -56.95,120.19 30.68,43.33 -27.1,90.9 -53.65,136.37 65.85,50.89 36.53,-19.84 117.76,37.06l44.05 3.36c32.26,-13.5 79.92,-15.76 106.03,-2.16 14.34,-6.39 14.75,-11.65 43.02,-8.83 30.61,3.06 26.13,5.56 49.99,20.07l-1.82 2.51 25.16 -14.12 28.42 14.78 3.94 -1.48c37.9,-24.84 112.61,-9.42 162.28,-15.4 -50.59,-71.14 -66.18,-39.48 -65.14,-120.97l-59.67 -58.62c-13.3,-35.44 -14.19,1 -0.64,-46.2 -34.94,-25.18 -55.59,-31.9 -63.46,-67.94 -23.64,-32.36 -4.69,-22.54 -32.17,-57.28 -17.77,-22.47 -24.09,-19.15 -39.67,-46.9 -28.86,-51.4 18.55,-6.21 -77.18,-107.74l-62.38 78.73z"/>
  <path class="fil3" d="M4625.03 4809.65l-3.25 -0.53 24.99 -15.81c74.32,35.21 31.05,14.88 90.29,18.24 40.18,2.26 67.99,2.77 100.11,31.12l5.61 2.85 40.52 -1.9c49.27,22.17 43.45,-7 82.45,22.62 34.69,-18.56 25.7,-20.3 64.35,-4.13l-5.58 4.87 34.33 -18.5 37.9 21.11 54.71 -14.09 3.69 -43.32c0.1,-22.35 -30.8,-119.76 -39.5,-141.05l-40.26 -105.35 18.54 -28.3 -7.89 5.42c-26.27,-33.78 -36.3,-38.43 -18.06,-77.37 -20.75,-25.62 -17.56,-36.58 -11.05,-65.67l-18.63 -13.59c-17.77,-23.56 -27.17,-21.68 -8.18,-49.28l-18.36 -19.78 -404.74 467.27 18.01 25.17z"/>
  <path class="fil3" d="M2596.75 5009.62c-35.45,42.38 -60.47,2.78 -99.27,-33.34 -81.28,11.89 -51.7,-0.14 -130.53,-46.99 -7.54,30.02 2.58,22.08 -10.13,64.95l4.68 -3.16c15.46,30.99 27.13,81.74 14.48,113.58 22.55,28.27 13.48,1.02 14.51,40.27 18.69,36.58 25.07,33.15 29.16,70.83 3.02,27.89 10.68,44.85 0.37,75.28l13.55 19.75 -4.66 43.03 5.44 31.47c27.45,44.28 24.38,76.15 43.21,99.16l53.07 -16.42c42.71,-36.46 35.9,-25.11 77.94,-47.57 29.8,-15.91 53.76,-47.96 83.69,-64.97l156.33 -96.45 66.05 -71.09c-74.17,-52.71 -96.52,-45.66 -159.49,-85.24 -76.99,-48.38 -62.88,6.09 -158.4,-93.09z"/>
  <path class="fil3" d="M2052.92 1835.22l-56.04 -4.45c-30.15,17.21 -19.79,20.14 -53.63,3.53 -62.63,-33.29 -18.42,16.94 -85.65,-21.51 -29.87,14.78 -22.73,13.43 -51.13,-6.28l-25.68 -7.29 -25.31 15.24c-44.4,-9.93 -61.91,3.29 -93.62,-20.5l-7.48 -12.91c-53.29,15.21 -23.79,7.7 -69,10.96l24.03 113.53c0.16,0.49 14.88,27.06 17.45,35.43 5.59,18.1 8.05,72.2 41.87,144.08l-13.36 28.28 3.63 -3.24c37.21,36.21 60.9,92.28 38.36,140.03 41.6,46.97 2.1,38.37 42.13,82.08l400.95 -467.49c-30.62,-18.39 -37.62,-0.48 -87.52,-29.49z"/>
  <path class="fil4" d="M2269.74 2567.94l4.13 -4.9c57.25,57.04 54.16,138.69 121.47,188.41l260.19 -306.43c-34.98,-35.12 -526.09,-194.34 -536.46,-195.14 31.26,79.42 153.37,247.14 150.67,318.06z"/>
  <path class="fil4" d="M2967.96 4383.54c-8.75,57.94 37.41,207.15 48.77,280.42 8.61,55.53 34.68,227.27 57.06,254.34 44.89,-44.13 126.75,-163.94 153.71,-219.89 36.66,-76.12 97.72,-143.89 145.52,-215.3 -46.2,-51.01 -282.06,-65.08 -405.06,-99.57z"/>
  <path class="fil4" d="M2007.3 3883.34l7.21 6.05c39.25,-24.91 296.86,-3.19 368.2,-0.92 -7.06,-37.41 -52.75,-142.18 -67.97,-182.65 -26.99,-71.79 -20.11,-123.01 -84.75,-178.2 -15.13,3.81 -19.09,-0.2 -48.61,25.79l-136.53 120.62c-61.58,50.38 -136.79,116.47 -179.74,182.7 46.13,33.74 79.85,2.24 142.19,26.61z"/>
  <path class="fil4" d="M4596.29 3086.13l-7.2 -7.17 299.6 -278.87c-46.67,-29.82 -494.35,-35.08 -518.41,-21.94 24.73,66.9 61.72,153.98 76.96,213.47 55.32,216.08 78.54,96.94 149.05,94.51z"/>
  <path class="fil4" d="M3780.66 2251.69l-100.39 -500c-40.56,42.59 -282.33,384.86 -277.31,407.58 13.3,60.13 355.68,97.8 377.7,92.42z"/>
  <path class="fil4" d="M4208.03 4261.37l98.56 40.14c34.25,-11.86 9.05,-10.78 49.07,-4.28l45.55 10.36c66.51,8.91 19.79,6.92 78.24,31.75 24.84,10.55 28.46,11.38 50.43,5.33 28.21,-7.76 20.88,28 31.88,-28.32 9.07,-46.43 -32.56,-50.93 -49.14,-81.55 -20.49,-37.87 19.25,-4.9 -42.07,-85.71 -34.76,-45.83 15.97,-10.19 -32.37,-76.49 -67.59,-92.72 -27.4,-79.63 -84.52,-165l-256.06 304.28 110.43 49.49z"/>
  <path class="fil5" d="M4308.57 4964.47c-28.79,26.22 -20.27,29.18 -56.07,15.05 -41.03,39.49 -36.14,29.91 -80.89,43.2 12.65,104.27 -56.6,168.72 -70.47,264.31 -10.66,73.35 -17.38,11.68 -49.59,135.31 -2.28,8.74 -50.89,124.51 -53.22,127.57l486.86 -519.24 -132.48 -104.65 -44.14 38.45z"/>
  <path class="fil6" d="M3358.77 1491.19l-2.1 -7.12c-26.88,18.18 -67.13,15.77 -101.02,17.7 -74.24,30.45 -128.13,-10.68 -269.48,39.41 -18.27,6.48 -48.41,8.06 -65.78,9.79 -72.15,7.19 -1.92,15.95 -135.23,43.39 -47.09,9.69 -25.38,11.18 -68.26,38.81l-29.1 -14.49c-38.08,40.66 -41.1,34.56 -89.87,38.4 -31.42,30.95 -36.02,32.34 -74.38,20.68l-12.55 17.27c-43.2,50.2 -41.47,16.41 -83.15,57.31l-43.41 49.96 1060.83 -293.18c-64.55,-33.1 -20.77,9.67 -86.5,-17.93z"/>
  <path class="fil7" d="M2967.96 4383.54c123,34.49 358.86,48.56 405.06,99.57 -47.8,71.41 -108.86,139.18 -145.52,215.3 -26.96,55.95 -108.82,175.76 -153.71,219.89 -22.38,-27.07 -48.45,-198.81 -57.06,-254.34 -11.36,-73.27 -57.52,-222.48 -48.77,-280.42zm-14.69 -36.65c-56.75,49.12 15.04,202.25 19.77,270.35 10.11,145.74 36.86,116.08 48.23,271.77 13.33,182.28 88.66,76.65 139.38,-25.48 53.24,-107.16 118.94,-160.48 160.65,-267.77l89.69 -143.44c-65.47,-37.37 -326.52,-64.04 -457.72,-105.43z"/>
  <path class="fil8" d="M2641.63 5009.4c40.89,4.02 49.5,16.37 57.75,50.77 -36.1,10.51 -69.29,-13.93 -57.75,-50.77zm-890.15 -736.79l20.85 -23.51c35.2,22.13 38.53,19.19 49.31,56.25 -37.42,12.15 -36.39,-2.51 -70.16,-32.74zm1066.39 832c-40.34,15.58 -68.25,-4.29 -69.05,-45.4 31.79,-19.83 58.47,19.29 69.05,45.4zm-1120.65 -947.38c12.24,-0.9 5.93,-29.27 47.07,14.55 22.3,23.74 9.65,25.06 10.72,34.29 -40.77,-3.87 -47.58,-13.02 -57.79,-48.84zm-38.72 -173.03c35.82,48.8 5.39,35.92 20.18,67.12 20.11,42.42 39.78,17.89 19.13,69.44 -95.11,-43.87 -36.68,-55.01 -96.99,-108.18 -12.74,12.42 -56.28,108.21 -60.74,126.84l62.38 -78.73c95.73,101.53 48.32,56.34 77.18,107.74 15.58,27.75 21.9,24.43 39.67,46.9 27.48,34.74 8.53,24.92 32.17,57.28 7.87,36.04 28.52,42.76 63.46,67.94 -13.55,47.2 -12.66,10.76 0.64,46.2l17.87 -30.94c68.54,26.88 60.35,38.61 80.89,87.41 16.24,38.6 59.32,53.82 96.93,95.24 233.32,257.06 157.7,158.22 389.8,331.36 62.83,46.87 27.16,51.6 105.97,68.4 52.31,11.15 55.86,35.48 89.71,71.4 95.52,99.18 81.41,44.71 158.4,93.09 62.97,39.58 85.32,32.53 159.49,85.24l-66.05 71.09 13.92 11.96 0.17 -10.69 81.34 -87.6c-39.33,-19.63 -95.69,-23.93 -100.97,-84.39 64.92,-2.13 57.76,43.36 111.98,9.45 -87.2,-25.94 -330.5,-89.34 -387.34,-137.55 -72.66,-61.63 -109.76,-49.51 -202.92,-128.09 -63,-53.14 -130.74,-95.25 -192.79,-151.79 -64.73,-58.99 -121.67,-117.05 -188.61,-175.68 -56.46,-49.47 -32.37,-44.03 -61.25,-92.07 -26.37,-43.86 -52.97,-38.8 -77.56,-81.35 -45.45,-78.62 -137.31,-313.72 -186.16,-357.24l0.1 10.2z"/>
  <path class="fil9" d="M3780.66 2251.69c-22.02,5.38 -364.4,-32.29 -377.7,-92.42 -5.02,-22.72 236.75,-364.99 277.31,-407.58l100.39 500zm-428.1 -68.63c63.6,55.12 147.24,51.28 230.69,66.75 60.08,11.14 167.53,40.01 220.82,42.99 4.32,-13.48 -70.06,-554.7 -131.93,-601.13 -32.52,27.44 -288.73,430.51 -319.58,491.39z"/>
  <path class="fil10" d="M2007.3 3883.34c-62.34,-24.37 -96.06,7.13 -142.19,-26.61 42.95,-66.23 118.16,-132.32 179.74,-182.7l136.53 -120.62c29.52,-25.99 33.48,-21.98 48.61,-25.79 64.64,55.19 57.76,106.41 84.75,178.2 15.22,40.47 60.91,145.24 67.97,182.65 -71.34,-2.27 -328.95,-23.99 -368.2,0.92 64.12,20.92 129.98,21.32 197.83,20.96 79.73,-0.42 133.7,30.11 193.73,-10.19 3.05,-40.34 -123.68,-392.05 -154.22,-426.75 -66.92,29.77 -64.77,62.9 -116.99,95.86 -66.64,42.07 -40.67,3.72 -111.34,84.25 -42.89,48.87 -61.6,79.11 -120.12,107.12 -39.97,19.12 -78.96,62.67 -101.59,102.27 33,53.34 159.75,47.57 205.49,20.43z"/>
  <path class="fil7" d="M2269.74 2567.94c2.7,-70.92 -119.41,-238.64 -150.67,-318.06 10.37,0.8 501.48,160.02 536.46,195.14l-260.19 306.43c-67.31,-49.72 -64.22,-131.37 -121.47,-188.41 -20.32,62.2 17.69,53.19 42.24,119.57 6.03,16.3 42.53,88.01 50.13,93.84 60.23,-2.54 302.88,-291.62 324.04,-356.42 -0.39,-27.57 -79.24,-33.12 -127.81,-45.95 -37.65,-9.95 -115.44,-47.06 -159.37,-59.26 -57.86,-16.07 -275.53,-105.32 -311.56,-88.6 -6.82,32.71 140,309.71 178.2,341.72z"/>
  <path class="fil9" d="M4596.29 3086.13c-70.51,2.43 -93.73,121.57 -149.05,-94.51 -15.24,-59.49 -52.23,-146.57 -76.96,-213.47 24.06,-13.14 471.74,-7.88 518.41,21.94l-299.6 278.87c78.13,-1.73 43.58,-56.68 84.54,-37.51l273.31 -255.4c-47.24,-28.27 -586.74,-59.94 -616.31,-44.77 0.63,24.88 69.64,205.71 85.9,247.26 49.09,125.46 46.86,252.24 179.76,97.59z"/>
  <path class="fil11" d="M4208.03 4261.37l-110.43 -49.49 256.06 -304.28c57.12,85.37 16.93,72.28 84.52,165 48.34,66.3 -2.39,30.66 32.37,76.49 61.32,80.81 21.58,47.84 42.07,85.71 16.58,30.62 58.21,35.12 49.14,81.55 -11,56.32 -3.67,20.56 -31.88,28.32 -21.97,6.05 -25.59,5.22 -50.43,-5.33 -58.45,-24.83 -11.73,-22.84 -78.24,-31.75l-45.55 -10.36c-40.02,-6.5 -14.82,-7.58 -49.07,4.28 37.69,28.17 117.22,43.75 160.04,56.38 78.8,23.22 65.11,44.53 150.54,28.74 3.33,-62.5 -135.46,-307.76 -176.94,-381.49 -23.79,-42.28 -27.69,-95.49 -78.41,-111 -40.93,11.04 -255.91,267.74 -283.29,318.81 32.88,44.43 81.07,60.34 129.5,48.42z"/>
  <path class="fil12" d="M2326.7 1802.61l-95.71 89.63c-39.34,27.77 -58.58,19.59 -100.51,56.57 -31.72,27.98 -48.27,54.61 -86.18,82.91 6.34,-52.16 77.14,-119.57 111.59,-170.33 -10.48,-23.84 -74.47,-29.78 -102.97,-26.17 49.9,29.01 56.9,11.1 87.52,29.49l-400.95 467.49c32.96,-9.15 24.81,-7.74 72.7,-60.87 27.06,-30.01 47.56,-49.21 79.4,-74.2 -7.13,39.3 -48.48,87.06 -73.66,124.58 -36.02,53.68 -19.63,88.8 -59.75,129.23 -16.86,10.48 -17.51,4.63 -3.09,17.02 53.67,-42.86 49.36,-61.39 66.52,-118.31 13.22,-43.85 54.22,-83.53 85.06,-120.16 66.11,-78.52 133.08,-155.68 201.02,-232.59 68.83,-76.27 84.54,-47.56 145.97,-103.89 40.57,-37.2 82.79,-84.09 130.78,-90.71l43.41 -49.96 -14.52 -12.48 -86.63 62.75z"/>
  <path class="fil12" d="M4241.24 4942.55l10.4 11.34c19.02,-27.3 76.51,-50.66 105.03,-57.92l-4.92 -3.38c28.81,-33.01 49.23,-43.87 87.9,-44.99l43.54 -49.05 61.24 -53.9c73.39,-40.36 63.7,-23.09 131.59,-91.32 -1.19,26.58 14.04,-4.61 -8.86,37.64 -7.77,14.36 -49.04,47.99 -79.54,106.68 39.44,29.7 17.5,11.8 37.41,12l-18.01 -25.17 404.74 -467.27c-3.72,0.77 -7.76,1.95 -10.87,3.45 -3.04,1.47 -6.77,2.05 -10.34,4.06 -41.74,23.5 -35.38,45.26 -91.63,87.55 -0.06,-24.05 -24.25,24.39 11.53,-40.44 46.58,-84.39 12.84,-11.49 39.9,-99.03 22.92,-41.25 10.84,-14.29 11.59,-45.12 -94,105.92 27.9,25.72 -137.27,225.79 -56.49,68.42 -126.79,154.6 -189.78,215.57 -41.76,40.41 -58.37,25.5 -103.42,60.28 -40.72,31.43 -49.55,62.92 -93.39,83.34 -62.4,29.05 -50.21,32.92 -98.86,67.26 -48.85,34.5 -30.27,-7.85 -97.98,62.63z"/>
  <path class="fil12" d="M1815.58 4386.75l59.67 58.62c-1.04,81.49 14.55,49.83 65.14,120.97 -49.67,5.98 -124.38,-9.44 -162.28,15.4l99.09 13.98 17.42 3.55c39.37,-21.28 28.94,-7.39 68.43,-21.74 -17.08,-46.29 -48.17,-49.99 -63.09,-98.08 79.23,6.68 245.21,257.28 423.09,355.99 38.82,21.55 142.26,74.68 132.27,122 -26.93,6.04 -68.3,-34.13 -95.97,-48.81l-21.96 38.62c1.33,2.34 4.84,3.93 3.61,7.23 -1.55,4.17 5.65,12.58 6.7,15.21 3.26,8.15 3.12,11.1 9.12,24.55 12.71,-42.87 2.59,-34.93 10.13,-64.95 78.83,46.85 49.25,58.88 130.53,46.99 38.8,36.12 63.82,75.72 99.27,33.34 -33.85,-35.92 -37.4,-60.25 -89.71,-71.4 -78.81,-16.8 -43.14,-21.53 -105.97,-68.4 -232.1,-173.14 -156.48,-74.3 -389.8,-331.36 -37.61,-41.42 -80.69,-56.64 -96.93,-95.24 -20.54,-48.8 -12.35,-60.53 -80.89,-87.41l-17.87 30.94z"/>
  <path class="fil13" d="M4791.82 2105.72c30.63,23.54 33.65,19.85 39.48,55.03 -62.41,-11.45 -203.17,-190.48 -269.06,-245.49 -70.32,-58.71 -235.61,-142.71 -264.83,-216.12l83.05 33.44c-43.54,-52.33 -64.22,-60.25 -120.38,-46.92 -39.45,-34.69 -62.38,-73.26 -103.24,-35.48 12.73,32.84 50.67,59.24 82.59,80.2 63.98,-11.08 116.17,62 164.88,99.16 54.51,41.6 105.01,68.02 159.71,115.2l221.55 215.01c51.24,46.75 22.65,27.92 45.49,72.84l78.24 66.34c33.76,-44.02 -18.34,-49.24 -42.67,-91.2 -28.56,-49.27 11.06,-52.47 -67.55,-114.33l24.33 -19.37 -38.21 -3.49 6.62 35.18z"/>
  <path class="fil14" d="M4767.96 4837.16c-38.3,12.18 -91.44,10.07 -123.99,-7.75 -41.69,5.97 -87.52,-9.95 -120.2,-40.96l-40.58 10.1 -43.54 49.05c-33.66,32.37 -45.06,42.23 -87.9,44.99l4.92 3.38c-35.66,34.14 -58.97,52.68 -105.03,57.92 -32.3,48.58 -57.94,28.91 -101.55,69.02 -2.89,40.26 8.98,24.02 -11.02,56.8 14.92,47.49 -55.5,173.76 -72.43,230.58 -13.45,45.13 -28.97,74.96 -41.86,119.67 -15.31,53.11 -51.5,77.15 -26.45,119.95 2.33,-3.06 50.94,-118.83 53.22,-127.57 32.21,-123.63 38.93,-61.96 49.59,-135.31 13.87,-95.59 83.12,-160.04 70.47,-264.31 44.75,-13.29 39.86,-3.71 80.89,-43.2l56.07 -15.05 44.14 -38.45c29.02,-16.45 95.79,-33.2 100.89,-75.42 70.66,-39.1 79.2,-9.4 164.59,-0.51l86.43 11.69c44.95,19.04 9.32,-1.58 64.32,5.96 32,4.38 28.36,7.17 62.72,4.08l-28.02 -17.65 -35.68 -17.01z"/>
  <path class="fil15" d="M3248.77 2720.75l18.12 59.01c38.93,3.04 115.27,-1.81 148.03,-27.69l-30.07 -95.74c-35.58,-46.85 -34.57,-116.9 -72.15,-166.88 -33.41,30.35 -28.9,64.31 -35.24,112.29 -5.16,39.16 -8.52,82.47 -28.69,119.01z"/>
  <path class="fil16" d="M1535.26 3031.35c2.03,-41.92 -3.35,-19.2 21.72,-26.82 -8.51,36.92 16.31,12.03 -21.72,26.82zm54.34 -158.54c-10.18,55.15 -1.12,67.92 -45.01,111.81l-24.82 -22.67c0.02,71.91 -19.82,64.4 -9.55,195.03 4.8,60.99 5.82,11.43 -10.05,66.46 -18.59,64.44 0.99,194.94 -40.48,253.45l-46.37 -19.87 60.41 48.75c22.99,-36.17 6.37,-79.22 45.01,-128.19l27.63 29.26c10.38,-55.04 -17.08,-117.57 -4.31,-170.83 23.25,-97.14 -6.45,-36.93 24.37,-169.84 7.87,-33.91 12.51,-99.29 34.19,-172.08 8.04,-26.97 10.17,-14.27 15.28,-42.75 19.3,-107.65 44.09,-61.82 16.05,-121.46l-42.35 142.93z"/>
  <path class="fil15" d="M2612.43 3333.88c-45.63,55.31 -45.84,1.76 -92.14,65.92 55.79,18.88 152.37,3.61 201.76,47.99 39.16,-31.38 38.44,-4.38 88.26,-8.95 5.61,-50.04 8.19,-78.12 -2.59,-126.99 -76.1,-14.99 -98.59,19.17 -152.54,30.11 -43.78,8.88 -23.98,3.73 -42.75,-8.08z"/>
  <path class="fil17" d="M2805.02 1554.63c-3.3,42.12 1.62,13.25 -22.7,24.73 4.55,-15.74 -32.72,-1.76 22.7,-24.73zm304.12 -80.42c44.84,22 18.86,20.33 19.7,23.5 -25.76,5.17 -49.43,10.94 -19.7,-23.5zm-464.64 14.43c-20.92,38.4 -31.15,63.44 -21.04,104.98l47.79 -13.98c33.54,-11.36 51.95,-23.63 85.02,-15.07 -10.78,40.46 -33.44,45.37 -68.47,54.11l29.1 14.49c42.88,-27.63 21.17,-29.12 68.26,-38.81 133.31,-27.44 63.08,-36.2 135.23,-43.39 17.37,-1.73 47.51,-3.31 65.78,-9.79 141.35,-50.09 195.24,-8.96 269.48,-39.41 -21.63,0.13 -21.77,-3.73 -33.2,-6.12l4.82 -6.47c-3.5,0.8 -41.28,9.32 -42.5,9.4 -34.41,2.51 -8.22,10.24 -38.96,-13.26 37.75,-43.07 22.67,-12.14 64.07,-40.43l-308.44 64.16c-62.1,3.17 -22.39,3.13 -69.85,21.3 -23.04,8.82 -88.56,8.19 -202.9,45.01l15.81 -86.72z"/>
  <path class="fil4" d="M3946.36 3214.34c34.11,-0.88 95.8,11.75 132.83,17.01 52.06,7.39 95.88,1.4 123.26,43.15 -25.72,19.15 -224.91,77.37 -259.29,69.58 -14.76,-35.81 -17.27,-96.16 3.2,-129.74zm-29.85 160.09c50.41,16.77 127.66,-20.15 179.15,-35.16 58.68,-17.12 143.44,-25.15 176.12,-77.13 -32.55,-49.04 -269.62,-74.67 -336.59,-77.06 -47.7,52.83 -37.21,43.7 -27.78,102.6 6.89,43.1 -8.8,51.42 9.1,86.75z"/>
  <path class="fil15" d="M2925.29 3920.36l51.79 -50.47c29.86,-26.6 62.42,-41.03 78.72,-76.76l-96.71 -81.42c-56.39,50.03 -40.67,70.46 -72.93,125.88 -20.41,35.09 -77.21,96.22 -48.48,116.29 25.66,6.72 -4.03,10.04 34.76,-10.22l52.85 -23.3z"/>
  <path class="fil18" d="M4923.67 2336.21c43.49,3.47 51.49,14.67 60.64,51.59 -37.07,11.52 -63.46,-11.87 -60.64,-51.59zm-100.26 -262.18l-24.33 19.37c78.61,61.86 38.99,65.06 67.55,114.33 24.33,41.96 76.43,47.18 42.67,91.2l-78.24 -66.34c6.63,44.68 20.81,28.43 51.22,64.41 33.06,39.09 4.92,25.08 30.33,65.22 27.76,43.88 27.94,13.11 42.77,63.68 14.39,49.09 -1.33,15.03 34.17,60.76 46.62,60.06 4.3,15.64 23.24,63.03l59.9 129.3c13.82,43.4 -4.46,36.73 37.6,69.44 -4.06,-54.57 -12.59,-62.87 -38.82,-112.52 -4.46,-33.29 6.03,-28.09 -19.86,-53.73 -31.13,-29.11 -27.2,-41.26 -23.15,-76.45 -34.36,-29.3 -42.41,-24 -41.44,-61.92 61.07,-12.78 59.25,45.43 64.22,79.02 26.05,17.17 41.02,24.1 57.91,51.78 3.48,5.68 11.23,25.71 11.44,26.01 16.38,23.95 -4.74,7.45 24.06,21.77l52.8 -107.13c-21.28,37.65 -19.77,49.88 -54.8,73.58 -84.72,-71.27 -41.97,-106.71 -144.68,-173.23 3.36,-74.87 2.81,-49.71 -62.74,-102.59 -0.24,-107.59 -12.61,-35.75 -51.47,-108.39 -21.65,-40.46 7.06,-10.72 -11.37,-47.69 -14.87,-29.82 -23.98,-15.21 -39.79,-59.62l35.19 -19.64 -33.54 -15.82 -10.84 12.17z"/>
  <path class="fil15" d="M3946.36 3214.34c-20.47,33.58 -17.96,93.93 -3.2,129.74 34.38,7.79 233.57,-50.43 259.29,-69.58 -27.38,-41.75 -71.2,-35.76 -123.26,-43.15 -37.03,-5.26 -98.72,-17.89 -132.83,-17.01z"/>
  <path class="fil19" d="M1894.62 4599.27c42.76,15.44 69.89,1.07 115.32,2.39l304.25 260.44c12.63,40.24 -1.19,52.11 23.2,85.15l21.96 -38.62c27.67,14.68 69.04,54.85 95.97,48.81 9.99,-47.32 -93.45,-100.45 -132.27,-122 -177.88,-98.71 -343.86,-349.31 -423.09,-355.99 14.92,48.09 46.01,51.79 63.09,98.08 -39.49,14.35 -29.06,0.46 -68.43,21.74z"/>
  <path class="fil20" d="M3691.01 2853.41c27.82,-48.07 46.31,-48.92 90.62,-73.55 44.99,-25.03 55.22,-61.24 106.67,-82.57 54.54,47.69 7.96,69.58 -25.05,129.29 -24.6,44.47 -27.7,94.88 -73.75,117.27 -33.79,-20.52 -80.51,-55.42 -98.49,-90.44zm255.42 -228.66c-52.39,12.26 -70.25,56.44 -109.64,86.87 -44.22,34.14 -44.03,5.56 -100.39,63.16 -39.04,39.9 -88.11,56.96 -52.99,100.01 23.84,29.23 79.14,76.13 114.04,87.92 88.26,-53.01 106.24,-164.69 107.5,-167.63 25.75,-59.94 119.55,-110.03 41.48,-170.33z"/>
  <path class="fil21" d="M4097.3 5165.91c1.05,1.34 -60.72,189.76 -70.59,211.77 -44.93,42.64 -13.73,48.25 -54.84,123.78 -35.38,64.97 1.13,54.91 -54.83,121.67l-333.27 -288.91 -104.43 -96.42c41.16,60.59 131.63,105.91 160.52,171.82l50.62 39.32 229.93 213.45 36.29 -45.11c7.28,-25.2 18.16,-44.06 41.63,-67.37 -25.05,-42.8 11.14,-66.84 26.45,-119.95 12.89,-44.71 28.41,-74.54 41.86,-119.67 16.93,-56.82 87.35,-183.09 72.43,-230.58l-41.77 86.2z"/>
  <path class="fil20" d="M3395.35 3892.92c25.77,-16.93 42.99,-18.3 88.78,-15.68 13.33,61.67 -2.39,216.5 -47.36,275.14 -32.04,-30.59 -44.38,-53.38 -55.66,-104.25 -14.56,-65.65 -43.21,-110.43 -37.96,-150.9 34.15,-12.96 26.28,-12.46 52.2,-4.31zm-80.17 6.41c24.42,64.17 80.62,312.86 120.63,343.2 54.64,-32.07 46.5,-130.26 57.11,-189.56 11.61,-64.92 38.86,-122.7 2.71,-190.64 -58.36,-20.28 -138.25,-7.11 -180.45,37z"/>
  <path class="fil15" d="M2712.96 2759.24c16.06,41.9 147.86,211.96 192.13,231.74l68.57 -73.31c-26.02,-41.37 -226.72,-154.44 -260.7,-158.43z"/>
  <path class="fil22" d="M2712.96 2759.24c33.98,3.99 234.68,117.06 260.7,158.43l-68.57 73.31c-44.27,-19.78 -176.07,-189.84 -192.13,-231.74zm197.03 87.88c-22.32,-45.36 -86.35,-62.61 -128.79,-80.23 -51.42,-21.35 -70.58,-65.87 -128.3,-58.75 8.76,34.8 29.34,69.61 63.02,81.78 44.5,65.06 125.48,204.99 186.85,243.06l112.87 -124.29c-45.02,-49.81 -49.62,-39.61 -105.65,-61.57z"/>
  <path class="fil23" d="M5198.2 2992.79c9.51,36.66 16.94,11.07 -4.73,47.23l6.86 5.92 19.12 20.77 -7.55 13.57 67.34 51.57 488.71 383.56c-32.38,51.64 -39.95,37.17 -83.91,70.05 69.22,28.02 118.16,-56.78 105.63,-82.47 -76.31,-83.16 -179.29,-141.07 -270.31,-205.2 -83.04,-58.51 -209.53,-156.37 -281.85,-224.21 0.93,-43.83 -11.7,-77.14 -30.81,-121.36l-8.5 40.57z"/>
  <path class="fil24" d="M4380.46 1732.58l-83.05 -33.44c29.22,73.41 194.51,157.41 264.83,216.12 65.89,55.01 206.65,234.04 269.06,245.49 -5.83,-35.18 -8.85,-31.49 -39.48,-55.03l-24.86 -30.42c11.3,-7.42 21.23,-13.02 35.48,-21.07l-30.49 -14.95 -30.21 13.4 -309.5 -267.82c-3.64,-27.14 0.81,-32.88 -3.97,-64.43 -8.84,-24.09 -1.97,-8 -18.88,-24.84l-2.1 48.46c-26.64,3.18 -5.25,14.22 -26.83,-11.47z"/>
  <path class="fil25" d="M1092.61 3269.43l41 32.7c41.5,33.52 90.5,78.68 135.43,103.72 379.85,211.77 181.95,248.33 284.92,321.63l3.81 -21.89c-16.09,-36.16 -26.95,-66.33 -15.52,-105.73l-8.67 -32.58 -25.4 -32.04 -33.19 -4.02 3.49 -7.78c-41.86,5.28 -100.69,-64.43 -137.18,-92.77 -84.16,-65.36 -340.49,-247.83 -369.8,-291.04 19.57,-55.68 50.22,-48.95 97.02,-79.04 -55.8,-13.35 -105.01,31.75 -110.3,80.32 10.51,47.61 94.41,94.47 134.39,128.52z"/>
  <path class="fil26" d="M3785.83 3734.76l56.11 -66.97c42.29,22.22 72.7,58.77 93.45,99 24.39,47.33 59.64,67.55 73.78,106.18 -51.4,-13.22 -194.51,-86.63 -223.34,-138.21zm13.82 56.05c31.17,10.13 83.62,51.91 128.55,70.7 102.64,42.93 90.27,78.11 143.58,63.94 0.77,-36.47 -45.85,-82.13 -73.27,-105.12l-152.13 -193.91c-37.22,33.7 -88.72,82.63 -97.59,128.74l50.86 35.65z"/>
  <path class="fil16" d="M3801.02 1536.37l-49.99 -13.61 -36.87 12.7 75.19 21.41c38.14,13.31 25.76,5.95 47.06,8.99 41.78,5.98 22.9,9.54 54.38,18.61 37.42,10.79 16.02,-5.57 49.92,5.24 48.54,15.48 12.39,30.64 68.75,14.95l7.28 -27.34c-64.16,-67.89 -52.51,-29.74 -92.78,-45.2 -14.72,-5.67 -74.52,-51.39 -90.68,-62.72 70.09,-112.71 135.27,-49.38 187.41,-161.39l-11.91 -8.7 -0.13 11.91c-29.04,40.86 -182.97,115.43 -226.09,156.3 52.23,71.53 85.37,-0.59 121.33,90.54 -41.88,13.06 -11.22,-15.64 -102.87,-21.69z"/>
  <path class="fil27" d="M1080.59 3043.3l-12.07 17.29c-46.8,30.09 -77.45,23.36 -97.02,79.04 29.31,43.21 285.64,225.68 369.8,291.04 36.49,28.34 95.32,98.05 137.18,92.77l-477.53 -386.31c19.59,-39.25 23.24,-41.42 66.09,-47.3l-4.93 -3.93 164.89 -99.75c-58.22,-10.9 -60.88,46.56 -146.41,57.15z"/>
  <path class="fil28" d="M1413.32 3457.02l-385.36 -323.06 39.08 -44.13c-42.85,5.88 -46.5,8.05 -66.09,47.3l477.53 386.31 -3.49 7.78c42.41,-48.11 5.3,-37.01 46.43,-88.95 11.75,24.51 1.56,24.85 9.81,62.93 8.18,37.76 9.9,27.76 2.35,62.08l8.67 32.58c22.35,23.6 15.77,4.24 19.87,29.3 1.93,-42.01 -24.28,-199.24 -15.75,-222.32l-27.63 -29.26c-38.64,48.97 -22.02,92.02 -45.01,128.19l-60.41 -48.75z"/>
  <path class="fil15" d="M3785.83 3734.76c28.83,51.58 171.94,124.99 223.34,138.21 -14.14,-38.63 -49.39,-58.85 -73.78,-106.18 -20.75,-40.23 -51.16,-76.78 -93.45,-99l-56.11 66.97z"/>
  <path class="fil29" d="M2639.05 1399.61l-22.59 34.76c7.5,42.27 2.65,33.12 -18.87,73.18l-36.01 58.22 -1.24 30.91c-7.08,26.69 -2.54,21.47 -28.8,48.3 -38.53,39.35 -158.41,60.6 -239.29,163.38l34.45 -5.75 86.63 -62.75c27.64,-25.37 62.61,-54.58 97.67,-44.83l12.55 -17.27c46.25,-35.71 45.67,-11.8 85.55,-60.01 -18.16,-63.43 -14.9,-61.89 12.28,-123.94 23.8,-54.29 15.86,-67.93 56.27,-124.59 17.44,-19.29 26.06,-27.73 10.51,-49l-18.47 -15.87 -30.64 95.26z"/>
  <path class="fil30" d="M1460.75 4251.17l-65.58 123.92c-6.28,41.55 -44.96,96.78 -51.65,151.86 51.3,-63.95 40.16,-74.45 71.69,-132.77 46.17,-63.66 33.73,-63.46 56.95,-120.19 2.23,-5.46 67.5,-133.98 67.92,-134.57 4.46,-18.63 48,-114.42 60.74,-126.84l53.53 24.07 4.15 -52.45 -0.1 -10.2c-42.76,-39.45 4.75,-18.2 -36.23,-61.36 -6.39,40.41 -0.15,44.92 12.23,83.93l-45.91 -2.12c-51.02,63.47 -82.22,187.54 -127.74,256.72z"/>
  <path class="fil22" d="M2925.29 3920.36l-52.85 23.3c-38.79,20.26 -9.1,16.94 -34.76,10.22 -28.73,-20.07 28.07,-81.2 48.48,-116.29 32.26,-55.42 16.54,-75.85 72.93,-125.88l96.71 81.42c-16.3,35.73 -48.86,50.16 -78.72,76.76 15.35,2.14 27.64,12.28 62.18,-19.34 24.13,-22.07 26.56,-27.44 33.67,-55.71 -24.96,-40.08 -73.8,-76.84 -114.71,-101.58 -54.11,28.64 -78.48,92.69 -99.18,145.4 -24.79,63.09 -70.93,77.94 -65.43,146.74 58.38,25.56 94.95,-18.97 131.68,-65.04z"/>
  <path class="fil23" d="M1894.62 4599.27l-17.42 -3.55c-25.76,13.17 -14.99,9.87 -41.2,14.99l22.73 19.5c20.64,-7.99 143.15,-3.15 165,2.31l179.7 156.78 49.32 40.45 39.55 30.47c-9.89,33.2 -4.27,9.25 0.37,61.85 3.67,41.52 -9.1,-10.87 3.67,28.27 8.85,27.11 24.83,77.41 39.62,96.45l7.25 -49.89c-22.75,-26.21 -17.67,-28.76 -5.82,-49.65 -24.39,-33.04 -10.57,-44.91 -23.2,-85.15l-304.25 -260.44c-45.43,-1.32 -72.56,13.05 -115.32,-2.39z"/>
  <path class="fil20" d="M3248.77 2720.75c20.17,-36.54 23.53,-79.85 28.69,-119.01 6.34,-47.98 1.83,-81.94 35.24,-112.29 37.58,49.98 36.57,120.03 72.15,166.88 -10.24,-123.95 7.39,-36.99 -32.89,-154.81 -13.42,-39.27 -7.96,-101.18 -59.79,-121.2l-32.85 165.37c-7.11,70.44 -22.03,134.18 -10.55,175.06z"/>
  <path class="fil31" d="M5205.98 3145.94c-17.39,22.74 -16.16,1.01 -11.83,25.56l6.69 8.33c2.18,51.22 19.39,36.9 4.35,75.92l24.14 29 28.4 -36.09c-8.71,-43.95 -1.17,-47.42 30.23,-75.04 41.04,7.46 80.1,48.78 114.77,75.96l324.53 277.11c-2.76,-76.73 22.92,39.15 -4.64,-21.78 -19.49,-43.08 -160.53,-137.74 -219.9,-184.23 -61.87,-48.45 -187.16,-126.54 -223.48,-188.83 -38.36,10.54 -16.56,2.33 -50.27,37.98l-22.99 -23.89z"/>
  <path class="fil11" d="M2722.05 3447.79c-49.39,-44.38 -145.97,-29.11 -201.76,-47.99 46.3,-64.16 46.51,-10.61 92.14,-65.92 -33.29,-8.23 -167.78,29.91 -187.27,55.56 19.31,38.57 28.32,32.48 62.53,36.21l161.11 24.01c21.86,4.33 13.91,6.16 36.8,6.01 32.31,-0.21 16.62,-0.07 36.45,-7.88z"/>
  <path class="fil32" d="M3395.35 3892.92c32.89,13.35 37.26,6.4 73.2,2.77 10.74,56.79 -1.2,142.87 -43.67,187.35 -39.33,-54.32 -36.86,-102.47 -64.27,-158.51l34.74 -31.61zm0 0c-25.92,-8.15 -18.05,-8.65 -52.2,4.31 -5.25,40.47 23.4,85.25 37.96,150.9 11.28,50.87 23.62,73.66 55.66,104.25 44.97,-58.64 60.69,-213.47 47.36,-275.14 -45.79,-2.62 -63.01,-1.25 -88.78,15.68z"/>
  <path class="fil33" d="M3395.35 3892.92l-34.74 31.61c27.41,56.04 24.94,104.19 64.27,158.51 42.47,-44.48 54.41,-130.56 43.67,-187.35 -35.94,3.63 -40.31,10.58 -73.2,-2.77z"/>
  <path class="fil34" d="M3875.69 2731.44c32.4,73.5 -83.44,93.75 -80.15,197.58l-92.32 -71.49c36.06,-37.14 45.05,-23.74 80.52,-50.66 36.97,-28.06 47.43,-63.57 91.95,-75.43zm-184.68 121.97c17.98,35.02 64.7,69.92 98.49,90.44 46.05,-22.39 49.15,-72.8 73.75,-117.27 33.01,-59.71 79.59,-81.6 25.05,-129.29 -51.45,21.33 -61.68,57.54 -106.67,82.57 -44.31,24.63 -62.8,25.48 -90.62,73.55z"/>
  <path class="fil35" d="M2826.39 971.23c-80.86,54.97 -37.49,62.24 -83.47,139.33l-25.01 79.69c-8.76,21.87 -22.58,61.29 -31.67,86.71l-16.55 27.39 18.47 15.87c34.28,-47.58 41.59,-101.06 63.89,-126.41l-5.14 -5.38 17.92 -88.58 32.73 -52.84c-13.11,-29.62 -0.46,-35.41 30.26,-52.25l155.37 138.74c-6.56,-50.87 -130.14,-155.11 -156.8,-162.27z"/>
  <path class="fil36" d="M2797.56 1047.01l22.61 -25.52c55.11,17.63 276.91,224.31 308.86,272.57l82.36 66.51 68.79 63.64 -42.77 25.45 -26.5 22.73 16.36 16.79 -4.82 6.47 25.2 -23.55c33.46,16.28 30.44,13.61 62.57,1.87l-40.74 -2.28 20.83 -41.56 8.11 -20.14 2.42 7.75 -317.65 -284.24 -155.37 -138.74c-30.72,16.84 -43.37,22.63 -30.26,52.25z"/>
  <path class="fil20" d="M2612.43 3333.88c18.77,11.81 -1.03,16.96 42.75,8.08 53.95,-10.94 76.44,-45.1 152.54,-30.11 10.78,48.87 8.2,76.95 2.59,126.99 -49.82,4.57 -49.1,-22.43 -88.26,8.95l96.06 23.93c38.2,-42.46 30.93,-60.96 28.18,-96.22l-5.4 -63.86c-7.11,-75.93 -203.75,2.94 -228.46,22.24z"/>
  <polygon class="fil37" points="2224.88,-2376.36 2457.44,-2168.13 2494.68,-2211.47 2257.99,-2414.88 "/>
  <path class="fil16" d="M3945.7 5101.52c5.07,-37.29 -7.08,-17.17 25.92,-28.41 -16.49,62.08 -4.98,22.27 -25.92,28.41zm167.2 -39.86c-30.22,17.21 -85.15,34.31 -116.39,26.18 15.63,-50.05 20.07,-43.88 63.8,-54.95 -36.55,-17.99 -60.83,11 -110.42,26.81 -65.89,21 -40.09,1.21 -98.04,49.64l-27.94 -6.76 -29.99 23.28 35.56 19.22c10.95,-0.75 48.28,-2.49 66.35,-10.7 56.68,-25.74 6.82,-17.5 79.71,-20.73 39.2,-1.74 112.45,-12.15 147.07,-38.82l8.26 -15.27 -17.97 2.1z"/>
  <path class="fil33" d="M3875.69 2731.44c-44.52,11.86 -54.98,47.37 -91.95,75.43 -35.47,26.92 -44.46,13.52 -80.52,50.66l92.32 71.49c-3.29,-103.83 112.55,-124.08 80.15,-197.58z"/>
  <path class="fil14" d="M1460.75 4251.17c45.52,-69.18 76.72,-193.25 127.74,-256.72l45.91 2.12c-12.38,-39.01 -18.62,-43.52 -12.23,-83.93 -19.11,-16.02 -31.07,-13.63 -17.14,-42.56l-6.29 -47.98 -6.52 -2.23 -28.77 -50.18c-13.42,39.79 14.03,108.78 34.91,145.45 -28.06,49.99 -11.45,39.76 -25.02,71.35 -13.13,30.55 -36.17,43.65 -48.56,76.4 -28.34,74.82 -32.55,81.13 -77.05,152.52l13.02 35.76z"/>
  <path class="fil10" d="M2909.99 2847.12c56.03,21.96 60.63,11.76 105.65,61.57l-112.87 124.29c-61.37,-38.07 -142.35,-178 -186.85,-243.06 -12.34,78.84 48.58,90.92 88.07,146.96 27.77,39.39 37.35,108.2 105.81,111.41 43.45,-17.2 94.46,-95.84 126.99,-137.66 -33.33,-59.08 -64.58,-86.46 -126.8,-63.51z"/>
  <path class="fil11" d="M3799.65 3790.81l-50.86 -35.65c8.87,-46.11 60.37,-95.04 97.59,-128.74l152.13 193.91 13.24 -29.57c-33.16,-35.44 -74.46,-63.07 -90.35,-104.06 -14.58,-37.59 -31.41,-65.86 -72.46,-85.28 -47.74,29.38 -117.7,101.23 -126.7,154.97 30.48,36.2 37.9,55.66 77.41,34.42z"/>
  <path class="fil38" d="M2530.63 5468.03l-52.28 41.74 -37.8 -37.58c-7.41,42 -8.21,31.19 24.19,62.87 33.04,-12.79 47.15,-31.45 77.29,-52.62l89.88 -39.98 22.56 -30.96 208.04 -140.5 -13.92 -11.96 -156.33 96.45c-29.93,17.01 -53.89,49.06 -83.69,64.97 -42.04,22.46 -35.23,11.11 -77.94,47.57z"/>
  <path class="fil13" d="M5197.45 2515.26l-52.8 107.13c-28.8,-14.32 -7.68,2.18 -24.06,-21.77 -0.21,-0.3 -7.96,-20.33 -11.44,-26.01 -16.89,-27.68 -31.86,-34.61 -57.91,-51.78 -4.97,-33.59 -3.15,-91.8 -64.22,-79.02 -0.97,37.92 7.08,32.62 41.44,61.92 -4.05,35.19 -7.98,47.34 23.15,76.45 -8.47,-61.95 -1.37,-17.75 7.22,-42.32 57.79,36.98 32.2,28.41 50.47,74.43l42.96 32.36c11.67,4.1 65.05,-119.29 78.26,-142.1 -0.5,-50.77 18.46,-52.92 27.22,-98.53 -27.15,34.36 -54.92,66.46 -60.29,109.24z"/>
  <path class="fil39" d="M2955.03 5097.77c-54.22,33.91 -47.06,-11.58 -111.98,-9.45 5.28,60.46 61.64,64.76 100.97,84.39l-81.34 87.6 17.1 11.84 15.33 -17.97c31.95,-35.13 87.59,-35.77 76.81,-74.43l-37.9 -44.86c24.91,-14.58 37.01,-6.7 71.26,1.88l38.65 9.94 24.55 -1.22c-52.52,-53.16 -56.48,3.35 -113.45,-47.72z"/>
  <path class="fil40" d="M1588.38 4600.68c-58.53,-15.68 -131.78,1.76 -189.47,-20.3l-1.05 -3.75c-28.36,20.73 -63.33,15.3 -89.75,-1.27l14.72 -29.2 21.27 -25.61 -0.58 6.4c6.69,-55.08 45.37,-110.31 51.65,-151.86 -34.07,38.99 -54.99,59.79 -63.95,108.08 -7.99,43.05 -37.67,54.36 -46.19,107.53 29.3,18.86 44.44,15.28 78.7,15.54 33.83,0.27 36.84,1.24 73.01,4.17l109.91 5.66c36.34,0.24 13.43,9.6 41.73,-15.39z"/>
  <path class="fil36" d="M5279.24 3131.85c36.32,62.29 161.61,140.38 223.48,188.83 59.37,46.49 200.41,141.15 219.9,184.23 27.56,60.93 1.88,-54.95 4.64,21.78l-35.06 33.85c-41.38,28.69 -47.13,17.86 -75.01,51.42 35.5,4.5 40.29,2.65 66.85,-26.5 43.96,-32.88 51.53,-18.41 83.91,-70.05l-488.71 -383.56z"/>
  <path class="fil30" d="M2292.25 1808.36l-10.98 20.67 -51.75 33.85 -79.46 -38.71c-13.91,9.86 1.89,6.74 -16.38,-11.67 -25.15,6.5 -1.7,5.1 -36.27,3.94 -14.63,-0.49 -16.18,-1.53 -28.69,-3.56 -25.92,-4.2 -40.58,-5.66 -64.22,-13.13l-4.47 2.55c-3.5,0.53 -6.06,-0.68 -10.13,3.14 -3.71,3.5 -6.58,3.26 -8.53,4.62 -1.87,1.29 -4.53,4.23 -6.99,6.09l22.5 14.62 56.04 4.45c28.5,-3.61 92.49,2.33 102.97,26.17 -1.04,36.43 -1.89,21.53 -27.57,58.2 -15.96,22.82 -27.65,43.22 -45.4,62.95 7.11,-19.37 40.79,-45.63 62.22,-63.22 41.14,-33.75 37.6,-36.7 85.85,-27.08l95.71 -89.63 -34.45 5.75z"/>
  <path class="fil41" d="M3604.32 5148.84c40.16,-4.07 25.81,-15.33 63.16,18.36 -34.47,26.4 -8.79,6.78 -36.42,18.41 -26.05,10.98 0.33,-9.05 -29.74,13.43 31.59,-2.53 76.36,-6.3 109.69,-15.68 41.7,-11.74 82.75,-30.6 118.47,-38.28l-35.56 -19.22 29.99 -23.28c-17,0.46 -41.15,1.3 -60.72,3.7 -47.6,5.85 3.29,10.4 -52.98,-1.48 -81.64,76.71 -29.46,2.27 -105.89,44.04z"/>
  <path class="fil42" d="M2797.56 1047.01l-32.73 52.84c17.15,38.75 2.92,50.9 -17.92,88.58l5.14 5.38c60.59,-65.76 28.85,-80.88 78.13,-152.98l298.85 253.23c-31.95,-48.26 -253.75,-254.94 -308.86,-272.57l-22.61 25.52z"/>
  <path class="fil16" d="M5191.61 3444.01c6.76,29.01 4.95,18.63 6.93,44.37 0.38,4.87 1.97,20.29 2.06,21.75 3.89,54.8 -42.04,66.47 -18.76,147.87l18.04 -40.81 23.12 30.07c0.45,-3.36 2.32,-10.86 0.25,-10.18 -13.21,4.37 18.19,-54.92 18.01,-100.13l1.56 -99.28 -24.34 -23.1 -26.87 29.44z"/>
  <path class="fil30" d="M2523.55 1677.76c38.36,11.66 42.96,10.27 74.38,-20.68l88.07 -52.42 -14.75 -25.02 -47.79 13.98c-10.11,-41.54 0.12,-66.58 21.04,-104.98 16.72,-20.74 16.92,-27.43 22.95,-53.12 0.83,-3.56 6.77,-28.63 6.96,-29.57 5.28,-28.15 4.71,-4.73 3.24,-36.73 -40.41,56.66 -32.47,70.3 -56.27,124.59 -27.18,62.05 -30.44,60.51 -12.28,123.94 -39.88,48.21 -39.3,24.3 -85.55,60.01z"/>
  <path class="fil43" d="M1690.4 2325.69c18.91,44.3 52.5,99.96 28.38,146.03 -12.14,23.18 -37.11,53.43 -48.22,79.29 -16.79,39.07 7.68,35.61 -31.62,74.2l-15.28 77.09 28.8 -67.4c42.52,-43.4 35.22,-70.7 62.73,-117.94l39.9 -49c-14.42,-12.39 -13.77,-6.54 3.09,-17.02l6.16 -18.9 -50.99 -98.6c-21.47,-38.23 -5.45,-28.77 -28.13,-67.35 -15.38,42.89 -7.77,21.14 5.18,59.6z"/>
  <path class="fil29" d="M5409.4 2068.92l21.62 20.17c-9.3,35.08 -21.81,56.12 -44.61,83.12 -52.49,41.26 -16.77,64.89 -61.8,99.07 3.8,37.26 10.65,5.33 -8.51,54.2 -13.54,34.58 -3.63,17.97 -27.53,45.14 0.43,2.44 2.99,4.35 1.34,7.3 -1.63,2.92 0.82,5.93 0.73,7.33 -0.08,1.19 -3.44,21.99 -3.47,22.11 37.26,-27.72 41.34,-38.51 51,-83.37 11.05,-51.39 27.96,-54.38 52.65,-95.66 24.7,-41.31 6.33,-41.1 25.09,-77.48 19.95,-38.74 44.79,-43.52 34.28,-90.2l-40.79 8.27z"/>
  <path class="fil44" d="M3985.2 1313.16c-49.86,36.53 -184.28,110.4 -218.27,151.6l41.62 52.21 -7.53 19.4c91.65,6.05 60.99,34.75 102.87,21.69 -35.96,-91.13 -69.1,-19.01 -121.33,-90.54 43.12,-40.87 197.05,-115.44 226.09,-156.3l-15.42 -13.26 -8.03 15.2z"/>
  <path class="fil45" d="M3690.48 5448.94c12.09,55.78 180.87,215.63 232.92,238.17l45.87 -38.64 -12.57 -31.19 -36.29 45.11 -229.93 -213.45z"/>
  <path class="fil29" d="M3679.24 1494.62l26.61 14.63c44.58,-22.72 40.14,-15.7 86.07,9.28 -24.75,-33.69 -24.14,-15.95 -24.99,-53.77 33.99,-41.2 168.41,-115.07 218.27,-151.6 -54.24,-34.04 -26.23,8.06 -155.9,74.38 -39.28,20.09 -35.76,32.55 -67.33,56.53 -18.45,14.01 -58.38,33.97 -82.73,50.55z"/>
  <path class="fil38" d="M5227.67 3812.69c2.69,0.29 8.67,-1.11 8.09,0.85l76.61 -18.94 6.87 -10.59c61.2,-49.94 219.78,-105 257.17,-156.72 -44.53,-18.27 -53.84,18.16 -91.98,40.17 -30.16,17.4 -42.67,19.01 -83.17,44.45 -30.32,19.05 -161.01,76.75 -173.59,100.78z"/>
  <path class="fil46" d="M4243.6 1129.5c15.98,4.21 0.19,17.14 20.42,-5.02l28.47 -13.06c21.55,31.27 21.69,27.67 18.67,65.53 7.02,16.73 7.29,19.83 10.63,37.74 0.44,2.3 3.68,19.75 3.74,21.41 1.32,36.75 4.19,3.5 -5.06,29.49l13.24 35.25c15.46,28.98 22.64,48.13 19.71,79.43l15.05 41.18c22.6,-38.07 -5.43,-127.04 -20.03,-171.74 -17.24,-52.77 -5.46,-125.06 -46.28,-165.73 -39.87,12.65 -36.48,11.65 -58.56,45.52z"/>
  <path class="fil47" d="M3404.01 5165.4c-27.84,13.09 -32.55,8.5 -63.33,1.08l-4 0.51 -44.34 10.51c19.6,3.38 12.93,4.4 29.99,11.6l-0.21 7.12c38.3,-9.9 37.47,-15.3 70.09,2.78l21.91 -11.41c37.25,25.22 36.78,18.3 38.76,59.1l-1.02 -4.15 188 167.08c-28.89,-65.91 -119.36,-111.23 -160.52,-171.82l-4.61 -1.84 -11.81 -21.03 32.04 -29.58 -29.08 -13.96c-28.94,5.9 -38.07,4.02 -61.87,-5.99z"/>
  <path class="fil48" d="M1739.49 2332.2c-40.03,-43.71 -0.53,-35.11 -42.13,-82.08l-10.31 23.14 -1.83 -7.17c22.68,38.58 6.66,29.12 28.13,67.35l30.57 21.25 68.4 -64.34c-8.8,36.97 -20.13,34.13 -33.13,68.52 -12.23,32.33 2.16,34.81 -14.85,73.17l-6.16 18.9c40.12,-40.43 23.73,-75.55 59.75,-129.23 25.18,-37.52 66.53,-85.28 73.66,-124.58 -31.84,24.99 -52.34,44.19 -79.4,74.2 -47.89,53.13 -39.74,51.72 -72.7,60.87z"/>
  <path class="fil49" d="M1562.52 1806.94c2.02,28.91 5.46,32.68 13.97,58.96 3.91,12.06 6.36,14.26 7.46,28.53 2.71,35.26 2.28,5.85 -4.81,29.3l15.17 1.15 61.06 188.45 13.36 -28.28c-33.82,-71.88 -36.28,-125.98 -41.87,-144.08 -2.57,-8.37 -17.29,-34.94 -17.45,-35.43l-24.03 -113.53c45.21,-3.26 15.71,4.25 69,-10.96l-75.71 -9.18 -16.15 35.07z"/>
  <path class="fil50" d="M5230.52 2504.55c-13.21,22.81 -66.59,146.2 -78.26,142.1l-6.3 2.27c-40.75,1.03 -13.92,-6.33 -53.99,-11.08 31.14,52.12 19.19,33.76 34.92,84.17l15.53 -46.42c43.61,-14.03 39.31,-26.66 63.18,-64.95 20.92,-45 9.74,-42.91 43.9,-97.05 20.54,-32.57 33.24,-72.81 37.67,-106.23 -33.58,25.36 -34.84,56.46 -56.65,97.19z"/>
  <path class="fil51" d="M5181.84 3658c-5.6,38.04 -21.79,34.56 -26,66.61 -2.75,20.96 6.8,-1.57 -0.14,33.28l-10.05 39.65 40.94 -44.35c26.72,28.3 11.73,0.37 17.35,40.15l19.28 -23.67c-16.88,-44.19 -2.29,-22.21 3.65,-64.21 6.49,-46.01 -12.42,-18.7 -3.87,-58.2l-23.12 -30.07 -18.04 40.81z"/>
  <path class="fil52" d="M3604.32 5148.84l-78.4 -8.35 -25.11 20.11 95.09 2.19c-13.6,37.31 -15.87,18.61 -58.21,36.36 -23.34,9.79 -47.57,20.21 -62.96,36.81l4.61 1.84 104.43 96.42 -73.3 -84.95c28.48,-44.23 38.81,-25.71 90.85,-50.23 30.07,-22.48 3.69,-2.45 29.74,-13.43 27.63,-11.63 1.95,7.99 36.42,-18.41 -37.35,-33.69 -23,-22.43 -63.16,-18.36z"/>
  <path class="fil53" d="M1623.66 2702.3c0.88,13.83 -18.42,45.77 -22.95,63.83 -11.34,45.21 6.88,27.67 -37.44,60.89l-23.41 -7.46 -15.5 15.62 15.7 11.08 -0.48 12.58 11.86 52.34 38.16 -38.37 42.35 -142.93 22.44 -28.84 -1.93 -66.14 -28.8 67.4z"/>
  <path class="fil45" d="M2440.55 5472.19l-19.42 -59.32 -19.8 11.46c4.27,28.22 11.26,34.17 14.6,56.8 2.94,20.02 -2.56,16.2 5.17,41.9l23.92 45.89 53.87 -20.87c40.49,-66.23 73.08,-30.54 133.02,-105.59l-89.88 39.98c-30.14,21.17 -44.25,39.83 -77.29,52.62 -32.4,-31.68 -31.6,-20.87 -24.19,-62.87z"/>
  <path class="fil54" d="M5145.65 3797.54c21.86,28 -52.41,200.82 -70.42,236.16l-6.15 1.46 15.4 13.23c43.95,-56.6 22.44,-63.71 56.59,-120.11l4.46 -0.93c-3.42,-34.12 -3.27,-66.1 26.65,-80.13 28.07,-28.52 -0.11,-10.12 47.65,-24.82l-33.39 -14.7 17.5 -14.36c-5.62,-39.78 9.37,-11.85 -17.35,-40.15l-40.94 44.35z"/>
  <path class="fil43" d="M5112.32 4889.77l-15.57 -20.18c-33.32,11.57 -36.89,9.98 -72.23,-2.61l5.58 -4.87c-33.59,10.71 -27.33,8.94 -64.35,4.13 -39,-29.62 -33.18,-0.45 -82.45,-22.62l-19.79 13.28 -20.73 -11.38 -5.61 -2.85c-3.46,0.73 -5.23,-0.38 -10.08,3.2 -5.43,3.98 -7.59,2.55 -11.19,3.83 -3.96,1.41 -8.08,3.26 -12.26,4.47l28.02 17.65 5.67 1.36c28.12,-13.87 25.89,-9.4 53.54,-0.02l-0.9 6.78c35.11,-3.91 53.29,-5.39 90.1,11.15 33.92,-1.08 107.47,3.75 135.77,18.1l36.64 -12.98 -40.16 -6.44z"/>
  <path class="fil29" d="M5576.41 3627.29c-37.39,51.72 -195.97,106.78 -257.17,156.72 46.45,14.8 38.82,1.19 75.59,-23.12 53.8,-35.56 11.72,6.88 58.09,-23.85 25.98,-17.23 34.52,-35.48 63.79,-47.05 37.55,-14.86 23.4,-5.07 67.44,-29.61 18.23,-16.85 36.18,-23.82 33.04,-48.42l-40.78 15.33z"/>
  <path class="fil46" d="M3068.48 5145.49l-24.55 1.22 -51.54 5.05 -38.45 -15.12c9,11.65 15.52,14.9 17.98,43.11 10.78,38.66 -44.86,39.3 -76.81,74.43l28.75 11.05c33.42,-25.26 63.25,-68.37 96.55,-85.44 60.81,-31.19 58.95,31.4 107.71,-11.56 -44.17,-18.9 -19.62,8.35 -59.64,-22.74z"/>
  <path class="fil45" d="M4926.36 2044.62c58.2,22.3 107.72,6.25 161.54,24.11l-5.11 5.28c52.91,-15.42 97.82,6.95 135.23,-14.88 -15.64,-22.78 -104.33,-14.46 -138.16,-17.71 -48.83,-4.72 -108.49,-15.77 -153.5,3.2z"/>
  <path class="fil55" d="M1664.79 2528.49l-25.47 42.76 -0.38 53.96c39.3,-38.59 14.83,-35.13 31.62,-74.2 11.11,-25.86 36.08,-56.11 48.22,-79.29 24.12,-46.07 -9.47,-101.73 -28.38,-146.03 -20.37,35.47 4.18,52.57 7.31,99.07 3.61,53.46 0.45,53.48 -32.92,103.73z"/>
  <path class="fil43" d="M1587.73 1986.25c25.44,31.62 24.85,94.45 38.95,118.01l47.35 132.06c22.12,-24.96 -14.06,-80.23 -15.03,-126.23l-3.63 3.24 -61.06 -188.45 -6.58 61.37z"/>
  <path class="fil48" d="M1324.43 2933.78c-22.94,21.09 -18.09,22.1 -50.35,14.34l-47.08 38.03 -164.89 99.75c14.57,0.37 12.33,1.62 27.29,-0.72 48.8,-7.64 53.69,-33.32 84.22,-47.91 35.66,-17.04 6.33,10.65 48.52,-16.66 23.16,-14.99 25.05,-25 52.26,-37.49l82.88 -52.22 -32.85 2.88z"/>
  <path class="fil56" d="M4264.02 1124.48c-20.23,22.16 -4.44,9.23 -20.42,5.02l-2.86 11.88c-39.11,43.05 -56.35,35.38 -89.08,68.12 26.5,16.37 28.49,11.42 58.91,-13.34 17.51,-14.26 35.53,-31.15 52.84,-45.84 57.37,46.71 9.89,63.44 57.06,115.27 9.25,-25.99 6.38,7.26 5.06,-29.49 -0.06,-1.66 -3.3,-19.11 -3.74,-21.41 -3.34,-17.91 -3.61,-21.01 -10.63,-37.74 -17.9,-36.55 -9.51,-41.29 -47.14,-52.47z"/>
  <path class="fil19" d="M4149.07 4997.66c-37.08,25.61 -68.97,27.11 -75.86,68.62 30.25,5.67 -8.03,11.63 39.69,-4.62l17.97 -2.1 -8.26 15.27 16.46 4.88c20,-32.78 8.13,-16.54 11.02,-56.8 43.61,-40.11 69.25,-20.44 101.55,-69.02l-10.4 -11.34c-32.79,34.69 -40.54,10.24 -92.17,55.11z"/>
  <path class="fil57" d="M1465.55 2825.11l45.93 -14.93 59.06 -19.75c17,-51.43 45.22,-72.3 31.41,-115.67 -45.81,70.76 -116.75,116.09 -136.4,150.35z"/>
  <path class="fil38" d="M5115.65 4671.13c8.7,21.29 39.6,118.7 39.5,141.05 26.46,50.17 28.66,42.38 0.76,74.49l37.94 3.23 -1.83 -31.7 11.08 -3.82c-26.49,-28.83 -37.01,-86 -44.04,-127.71 -21.64,-37.18 -22.89,-31.6 -18.84,-71.76l-1.08 6.73 -25.98 -59.4 2.49 68.89z"/>
  <path class="fil39" d="M2155.89 1861.39c-34.45,50.76 -105.25,118.17 -111.59,170.33 37.91,-28.3 54.46,-54.93 86.18,-82.91 41.93,-36.98 61.17,-28.8 100.51,-56.57 -48.25,-9.62 -44.71,-6.67 -85.85,27.08 -21.43,17.59 -55.11,43.85 -62.22,63.22 17.75,-19.73 29.44,-40.13 45.4,-62.95 25.68,-36.67 26.53,-21.77 27.57,-58.2z"/>
  <path class="fil8" d="M5244.13 3311.09c13.22,39.1 13.96,61.79 -25.67,90.93 -22.96,-44.41 -1.58,-11.14 -1.29,-59.22 0.02,-1.49 -5.18,-56.29 -5.67,-60.62 -23.26,41.34 -23.9,118.87 -19.89,161.83l26.87 -29.44 24.34 23.1c14.15,-69.88 19.43,-29.77 20.03,-114.54 0.22,-31.65 7.37,-9.46 -9.35,-39.88l-9.37 27.84z"/>
  <path class="fil48" d="M4950.35 4272.8c-27.06,87.54 6.68,14.64 -39.9,99.03 -35.78,64.83 -11.59,16.39 -11.53,40.44 56.25,-42.29 49.89,-64.05 91.63,-87.55 3.57,-2.01 7.3,-2.59 10.34,-4.06 3.11,-1.5 7.15,-2.68 10.87,-3.45l18.36 19.78c17.28,-7.99 21.02,-3.13 5.42,-12.46l-23.78 -27.88 -37.75 2.02 -23.66 -25.87z"/>
  <path class="fil14" d="M2401.33 5424.33l19.8 -11.46c-13.01,-25.37 -13.8,-48.34 -20.1,-77.54 -7.96,-36.92 -16.45,-51.13 -4.6,-79.41l-15.71 -13.25 13.27 -24.73 -14.48 -6.41c-34.59,-49.57 4.38,-13.57 -27.51,-61.24 -7.79,43.78 15.45,90.89 22.01,137.3 6.39,45.18 8.67,87.55 27.32,136.74z"/>
  <path class="fil58" d="M1465.55 2825.11l-6.83 22.16 -115 60 -19.29 26.51 32.85 -2.88c16.3,-18.73 73.66,-45.39 94.49,-52.19 27.03,-36.9 30.11,-28.01 72.59,-43.53l15.5 -15.62 -28.38 -9.38 -45.93 14.93z"/>
  <path class="fil35" d="M3993.23 1297.96l15.42 13.26 0.13 -11.91 120.79 -85.72c18.21,-9.43 1.17,-5.28 22.09,-4.09 32.73,-32.74 49.97,-25.07 89.08,-68.12 -16.94,2.08 -34.21,1.26 -64.4,18.73 -27.61,15.99 -40.26,35.11 -62.77,51.7 -48.49,35.73 -54.75,6.42 -120.34,86.15z"/>
  <path class="fil59" d="M1523.37 4570.97l-44.05 -3.36 -66.71 -3.17 -13.7 15.94c57.69,22.06 130.94,4.62 189.47,20.3 26.73,-7.1 19.33,-5.56 51.77,4.28l11.12 -18.73 -21.87 -17.42c-23.02,21.05 -7.38,15.74 -49.55,11.64 -26.4,-2.57 -30.37,-2.08 -56.48,-9.48z"/>
  <path class="fil48" d="M4544.43 4744.65c34.11,23.63 27.59,18.87 43.19,53 30.5,-58.69 71.77,-92.32 79.54,-106.68 22.9,-42.25 7.67,-11.06 8.86,-37.64 -67.89,68.23 -58.2,50.96 -131.59,91.32z"/>
  <path class="fil60" d="M5257.73 3248.66l-4.23 34.59c39.56,-54.37 14.75,-58.43 34.61,-86.22l90.39 62.47 24.23 -9.92c-34.67,-27.18 -73.73,-68.5 -114.77,-75.96 -31.4,27.62 -38.94,31.09 -30.23,75.04z"/>
  <path class="fil61" d="M5071.47 2635.91c26.23,49.65 34.76,57.95 38.82,112.52 24.09,36.13 -2.1,35.68 41.01,82.73 1.96,-11.8 5.32,-24.97 0.8,-44.24 -6.25,-26.64 -12.01,-24.07 -19.48,-53.14l-5.73 -11.77c-15.73,-50.41 -3.78,-32.05 -34.92,-84.17 40.07,4.75 13.24,12.11 53.99,11.08 -33.73,-27.48 -36.42,-39.83 -74.49,-13.01z"/>
  <path class="fil38" d="M1600.82 4012.58c60.31,53.17 1.88,64.31 96.99,108.18 20.65,-51.55 0.98,-27.02 -19.13,-69.44 -14.79,-31.2 15.64,-18.32 -20.18,-67.12l-4.15 52.45 -53.53 -24.07z"/>
  <path class="fil40" d="M1080.59 3043.3c85.53,-10.59 88.19,-68.05 146.41,-57.15l47.08 -38.03c23.48,-15.53 24.95,-26.37 50.35,-14.34l19.29 -26.51c-56.15,-17.56 -61.28,33.94 -126.8,53.44 -37.3,11.09 -28.91,22.44 -61.08,40.1 -39.45,21.67 -30.26,-6.35 -75.25,42.49z"/>
  <path class="fil62" d="M3500.81 5160.6l-3.35 -4.51c-12.48,5.19 -18.5,10.46 -31.58,15.3l29.08 13.96 -32.04 29.58 11.81 21.03c15.39,-16.6 39.62,-27.02 62.96,-36.81 42.34,-17.75 44.61,0.95 58.21,-36.36l-95.09 -2.19z"/>
  <path class="fil14" d="M1579.14 1923.73c7.09,-23.45 7.52,5.96 4.81,-29.3 -1.1,-14.27 -3.55,-16.47 -7.46,-28.53 -8.51,-26.28 -11.95,-30.05 -13.97,-58.96l-16.17 -38.07c24.8,-26.26 -2.45,-8.13 38.09,-18.39l-31.24 -19.36c-20.78,20.58 -33.79,11.81 -13.94,102.55 7.54,34.44 14.86,66.1 39.88,90.06z"/>
  <path class="fil31" d="M1539.58 2858.84c-33.6,68.05 -5.66,43.19 -19.81,103.11l24.82 22.67c43.89,-43.89 34.83,-56.66 45.01,-111.81l-38.16 38.37 -11.86 -52.34z"/>
  <path class="fil63" d="M1343.52 4526.95l0.58 -6.4 16.05 34.73 52.46 9.16 66.71 3.17c-81.23,-56.9 -51.91,13.83 -117.76,-37.06 26.55,-45.47 84.33,-93.04 53.65,-136.37 -31.53,58.32 -20.39,68.82 -71.69,132.77z"/>
  <path class="fil14" d="M1601.95 2674.76c13.81,43.37 -14.41,64.24 -31.41,115.67l-59.06 19.75 28.38 9.38 23.41 7.46c44.32,-33.22 26.1,-15.68 37.44,-60.89 4.53,-18.06 23.83,-50 22.95,-63.83l15.28 -77.09 -36.99 49.55z"/>
  <path class="fil53" d="M4988.35 4206.2l-26.41 21.48c-0.75,30.83 11.33,3.87 -11.59,45.12l23.66 25.87 37.75 -2.02 23.78 27.88c-10.08,-55.63 -5.81,-41.2 -49.04,-83.91l21.73 -31.19 12.78 -42.01 -32.66 38.78z"/>
  <path class="fil39" d="M4060.31 5032.89c-43.73,11.07 -48.17,4.9 -63.8,54.95 31.24,8.13 86.17,-8.97 116.39,-26.18 -47.72,16.25 -9.44,10.29 -39.69,4.62 6.89,-41.51 38.78,-43.01 75.86,-68.62 -77.91,6.39 -34.91,11.51 -88.76,35.23z"/>
  <path class="fil64" d="M4483.19 4798.55l40.58 -10.1c32.68,31.01 78.51,46.93 120.2,40.96l-22.19 -20.29 3.25 0.53c-19.91,-0.2 2.03,17.7 -37.41,-12 -15.6,-34.13 -9.08,-29.37 -43.19,-53l-61.24 53.9z"/>
  <path class="fil31" d="M2671.25 1579.64l14.75 25.02 -88.07 52.42c48.77,-3.84 51.79,2.26 89.87,-38.4 35.03,-8.74 57.69,-13.65 68.47,-54.11 -33.07,-8.56 -51.48,3.71 -85.02,15.07z"/>
  <path class="fil65" d="M5075.23 4033.7c18.01,-35.34 92.28,-208.16 70.42,-236.16l-6.8 14.4c-0.65,1.87 -1.55,5.04 -2.22,7.15 -0.68,2.11 -0.92,5.1 -1.62,7.33 -16.98,54.78 -26.66,46.91 -34.13,90.71 -11.41,66.98 -47.17,54.74 -25.65,116.57z"/>
  <path class="fil66" d="M3298.42 1409.99l-8.11 20.14c52.92,54.99 38.71,21.24 102.31,43.83l18.2 2.45c38.16,-10.35 45.12,-11.2 84.44,4.03l0.93 -7.37c-44.58,-38.39 -96.27,-23.31 -153.45,-25.05l-44.32 -38.03z"/>
  <path class="fil67" d="M1652.46 2634.9l1.93 66.14c55.54,-68.96 20.67,-33.35 32.48,-81.32 28.33,-35.5 61.53,-68.93 28.32,-102.76 -27.51,47.24 -20.21,74.54 -62.73,117.94z"/>
  <path class="fil68" d="M4621.78 4809.12l22.19 20.29c23.57,-9.94 95.66,-2.74 123.99,7.75l35.68 17.01c4.18,-1.21 8.3,-3.06 12.26,-4.47 3.6,-1.28 5.76,0.15 11.19,-3.83 4.85,-3.58 6.62,-2.47 10.08,-3.2 -32.12,-28.35 -59.93,-28.86 -100.11,-31.12 -59.24,-3.36 -15.97,16.97 -90.29,-18.24l-24.99 15.81z"/>
  <path class="fil16" d="M4045.59 1598.72c9.77,39.16 31.93,59.06 74.5,60.25 13.46,-23.96 21.34,-22.7 -8.13,-52.56 -33.71,-34.14 -39.02,-31.31 -66.37,-7.69z"/>
  <path class="fil12" d="M5244.13 3311.09l-18.03 12.8c-7.61,-23.63 -12,-4.76 7.71,-30.31l10.32 17.51zm-38.94 -55.34c-4.1,16.85 -15.81,0.46 6.31,26.43 0.49,4.33 5.69,59.13 5.67,60.62 -0.29,48.08 -21.67,14.81 1.29,59.22 39.63,-29.14 38.89,-51.83 25.67,-90.93l9.37 -27.84 4.23 -34.59 -28.4 36.09 -24.14 -29z"/>
  <path class="fil43" d="M2654.47 5411.5c60.84,3.16 65.76,-27.14 112.38,-61.08 46.76,-34.01 57.91,-20.49 112.93,-78.27l-17.1 -11.84 -0.17 10.69 -208.04 140.5z"/>
  <path class="fil69" d="M1357.28 2930.9l-82.88 52.22c40.19,13.83 50,-11.43 84.2,-40.4 36.16,14.04 80.74,-27.75 93.17,-64.01 -20.83,6.8 -78.19,33.46 -94.49,52.19z"/>
  <path class="fil65" d="M4988.35 4206.2l32.66 -38.78c34.73,-48.12 24.56,-73.98 63.82,-125.34l-0.35 6.31 -15.4 -13.23c-22.91,21.43 -45.66,56.5 -56.14,86.62 -4.18,12.05 -23.24,77.79 -24.59,84.42z"/>
  <path class="fil35" d="M5035.54 4324.53c15.6,9.33 11.86,4.47 -5.42,12.46l12.47 8.06 27.38 44.44c5.66,-37.15 -14.82,-78.44 -19.25,-120.77l-14.68 -7.13c-27.84,-32.1 -15.87,-12.66 -27.81,-52.16l-21.73 31.19c43.23,42.71 38.96,28.28 49.04,83.91z"/>
  <path class="fil59" d="M2335.96 5046.79l0.46 -2.66c19.12,29.2 12.89,25.57 5.98,55.05l1.42 1.05c22.32,27.74 19.86,21.76 8.18,50.06 31.89,47.67 -7.08,11.67 27.51,61.24 12.61,-37.74 8.61,-14.71 4.11,-53.8 -10.57,-33.87 -13.12,-23.14 -7.64,-53.07 -17.89,-27.87 -22.2,-64.07 -15.86,-93.23l-16.91 -14.53 -7.25 49.89z"/>
  <path class="fil49" d="M5218.02 2059.13c-37.41,21.83 -82.32,-0.54 -135.23,14.88 45.67,37.71 111.16,3.49 167.65,22.87l26.45 -17.46c-45.31,-10.16 -24.55,5.36 -58.87,-20.29z"/>
  <path class="fil23" d="M5159.06 4726.67c7.03,41.71 17.55,98.88 44.04,127.71l12.13 -22.86c-17.06,-39.61 -39.56,-141.19 -57.1,-161.05l0.93 56.2z"/>
  <path class="fil70" d="M3496.19 1473.07l-0.93 7.37c-36.5,6.65 -45.56,9.43 -84.44,-4.03l-18.2 -2.45c-14.67,6.67 -18,10.87 -33.85,17.23 65.73,27.6 21.95,-15.17 86.5,17.93 33.94,-6.62 69.07,7.95 103.5,-10.92 -41.38,-26.23 -15.9,0.37 -52.58,-25.13z"/>
  <path class="fil54" d="M1778.11 4581.74l-3.94 1.48 -53.58 -0.66 1.82 -2.51 -58.86 10.98c12.95,6.02 11.52,8.8 31.25,13.35l-1.94 2.7c32.44,-7.93 111.1,-4.38 143.14,3.63 26.21,-5.12 15.44,-1.82 41.2,-14.99l-99.09 -13.98z"/>
  <path class="fil30" d="M1713.35 2333.44l50.99 98.6c17.01,-38.36 2.62,-40.84 14.85,-73.17 13,-34.39 24.33,-31.55 33.13,-68.52l-68.4 64.34 -30.57 -21.25z"/>
  <path class="fil63" d="M4026.71 5377.68c9.87,-22.01 71.64,-210.43 70.59,-211.77 -28.39,21.8 -57.06,64.99 -38.73,98.56 -29.01,46.83 -56.85,63.38 -31.86,113.21z"/>
  <path class="fil64" d="M4926.36 2044.62l0.21 0.07 -39.15 17.09 33.29 8.62c29.52,12.37 142.96,12.28 167.19,-1.67 -53.82,-17.86 -103.34,-1.81 -161.54,-24.11z"/>
  <path class="fil54" d="M1767.48 1765.38l5.69 -0.44c-46.07,17.82 -2.3,4.84 -64.35,7.04 -1.53,0.06 -7.82,3.3 -7.29,1.5 0.52,-1.83 -4.87,1.29 -7.26,2.09 38.79,22.8 47.54,12.77 86.52,23.65l25.68 7.29c31.37,-9.92 23.98,-13.75 51.13,6.28 2.46,-1.27 5.39,-3.54 7.03,-4.44 1.81,-1.02 4.74,-0.94 8.21,-4.06 3.8,-3.43 6.12,-2.78 9.36,-3.64l-26.07 -6.49c-26.13,-24.73 -40.02,-4.39 -88.65,-28.78z"/>
  <path class="fil50" d="M5021.01 4167.42l-12.78 42.01 20.83 -25.73c54.02,-61.18 42.41,-75.73 70.91,-128.61l-15.14 -13.01c-39.26,51.36 -29.09,77.22 -63.82,125.34z"/>
  <path class="fil71" d="M5051.61 2582.18c25.89,25.64 15.4,20.44 19.86,53.73 38.07,-26.82 40.76,-14.47 74.49,13.01l6.3 -2.27 -42.96 -32.36c-18.27,-46.02 7.32,-37.45 -50.47,-74.43 -8.59,24.57 -15.69,-19.63 -7.22,42.32z"/>
  <path class="fil24" d="M1474.99 3531.22l33.19 4.02 25.4 32.04c7.55,-34.32 5.83,-24.32 -2.35,-62.08 -8.25,-38.08 1.94,-38.42 -9.81,-62.93 -41.13,51.94 -4.02,40.84 -46.43,88.95z"/>
  <path class="fil63" d="M2421.13 5412.87l19.42 59.32 37.8 37.58 52.28 -41.74 -53.07 16.42c-18.83,-23.01 -15.76,-54.88 -43.21,-99.16 4.37,27.31 7.25,7.99 -13.22,27.58z"/>
  <path class="fil72" d="M1605.03 3870.08c10.86,14.08 27.96,24.4 17.14,42.56 40.98,43.16 -6.53,21.91 36.23,61.36 14.03,-47.17 -7.46,-37.7 -16.93,-79.42 -9.82,-43.26 0.88,-42.05 -42.73,-72.48l6.29 47.98z"/>
  <path class="fil45" d="M5227.67 3812.69l-7.84 9.71c-47.76,14.7 -19.58,-3.7 -47.65,24.82 46.16,18.94 105.81,-13.97 140.19,-52.62l-76.61 18.94c0.58,-1.96 -5.4,-0.56 -8.09,-0.85z"/>
  <path class="fil64" d="M2421.13 5412.87c20.47,-19.59 17.59,-0.27 13.22,-27.58l-5.44 -31.47c-15.59,-33.75 -21.27,-32.6 -8.89,-62.78l-23.59 -35.12c-11.85,28.28 -3.36,42.49 4.6,79.41 6.3,29.2 7.09,52.17 20.1,77.54z"/>
  <path class="fil73" d="M2379.51 5211.53l14.48 6.41 13.75 22.96 -11.31 15.02 23.59 35.12c10.31,-30.43 2.65,-47.39 -0.37,-75.28 -4.09,-37.68 -10.47,-34.25 -29.16,-70.83l-6.87 12.8c4.5,39.09 8.5,16.06 -4.11,53.8z"/>
  <path class="fil71" d="M3149.15 5158.09c20.53,16.65 2.71,9.51 29.74,17.56l36.6 6.42 -6 1.76 21.7 -15.38 14.99 14.6 41.97 -12.81c-33.52,-21.15 -106.37,-32.4 -139,-12.15z"/>
  <path class="fil71" d="M3705.85 1509.25l-26.61 -14.63 -1.09 -5.07 -20.42 11.74 -23.44 -15.47 -8.09 -0.48 -27.02 9.88c58.76,46.48 61.63,6.82 114.98,40.24l36.87 -12.7 -45.18 -13.51z"/>
  <path class="fil63" d="M1674.03 2236.32l23.33 13.8c22.54,-47.75 -1.15,-103.82 -38.36,-140.03 0.97,46 37.15,101.27 15.03,126.23z"/>
  <path class="fil64" d="M1658.3 1761.59l4.44 -3.52c-34.4,7.98 -48.73,11.27 -78.3,-7.59 -40.54,10.26 -13.29,-7.87 -38.09,18.39l16.17 38.07 16.15 -35.07 75.71 9.18 7.48 12.91 32.41 -18.39 -35.97 -13.98z"/>
  <path class="fil71" d="M1553.96 3727.48c25.12,20.18 17.61,20.33 13.09,49.24l-3.6 -7.03 28.77 50.18c18.82,-39.49 9.36,-24.68 -0.24,-72.96 -6.62,-33.28 -3.25,-26.6 -21.71,-58.87l-12.5 17.55 -3.81 21.89z"/>
  <path class="fil47" d="M5211.9 3080.28l-7.11 18.71 15.4 24.37 -14.21 22.58 22.99 23.89c33.71,-35.65 11.91,-27.44 50.27,-37.98l-67.34 -51.57z"/>
  <path class="fil47" d="M5361.51 2057.17l-18.49 15.57 10.66 13.97c15.24,-5.06 10.06,-19.55 37.32,-1.91 40.15,25.97 13.89,28.15 10,42.65l-4.92 7.33c-31.98,42.83 -9.58,16.76 -9.67,37.43 22.8,-27 35.31,-48.04 44.61,-83.12l-21.62 -20.17c-34.51,-23.8 -10.32,-1.87 -47.89,-11.75z"/>
  <path class="fil73" d="M5290.58 2091.62c24.32,26.22 41.16,14.29 67.2,16.26 15.75,45 -16.31,3.67 21.01,45.29l17.29 -18.39 4.92 -7.33 -47.32 -40.74 -10.66 -13.97 -52.44 18.88z"/>
  <path class="fil25" d="M1767.48 1765.38c48.63,24.39 62.52,4.05 88.65,28.78l61.03 -13.06c-40.04,-30.34 -22.97,-6.14 -67.83,-16.95 -46.84,-11.3 -36.84,-18.56 -81.85,1.23z"/>
  <path class="fil28" d="M3209.88 1444.89c-41.4,28.29 -26.32,-2.64 -64.07,40.43 30.74,23.5 4.55,15.77 38.96,13.26 1.22,-0.08 39,-8.6 42.5,-9.4l-16.36 -16.79 26.5 -22.73c-3.33,0.42 -7.57,0.1 -10.09,-0.12 -2.34,-0.21 -9.35,0.97 -9.18,-1.59 0.16,-2.4 -5.43,-2.3 -8.26,-3.06z"/>
  <path class="fil74" d="M3548.44 1458.81c-19.57,3.68 -33.63,2.66 -52.25,14.26 36.68,25.5 11.2,-1.1 52.58,25.13 25.12,-13.17 26.71,-15.97 58.17,1.08l-7.76 -4.06 27.02 -9.88c-50.7,-33.4 -38.14,-6.22 -77.76,-26.53z"/>
  <path class="fil25" d="M2004.5 1799.75c23.64,7.47 38.3,8.93 64.22,13.13 12.51,2.03 14.06,3.07 28.69,3.56 34.57,1.16 11.12,2.56 36.27,-3.94 -36.2,-33.15 -90.06,-38.65 -129.18,-12.75z"/>
  <path class="fil75" d="M3209.88 1444.89c2.83,0.76 8.42,0.66 8.26,3.06 -0.17,2.56 6.84,1.38 9.18,1.59 2.52,0.22 6.76,0.54 10.09,0.12l42.77 -25.45 -68.79 -63.64c3.38,22.43 -2.39,2.08 7.34,26.22 4.27,10.61 5.78,5.94 12.18,26.01l-21.03 32.09z"/>
  <path class="fil25" d="M5084.48 4048.39l0.35 -6.31 15.14 13.01c45.62,-47.6 51.12,-67.65 41.1,-126.81 -34.15,56.4 -12.64,63.51 -56.59,120.11z"/>
  <path class="fil40" d="M5126.89 2722.01l5.73 11.77 17.19 20.77c4.29,-13.86 15.46,-59.32 18.98,-67.82 15.88,-38.44 28.39,-29.36 36.81,-76.09 -23.87,38.29 -19.57,50.92 -63.18,64.95l-15.53 46.42z"/>
  <path class="fil54" d="M3705.85 1509.25l45.18 13.51 49.99 13.61 7.53 -19.4 -41.62 -52.21c0.85,37.82 0.24,20.08 24.99,53.77 -45.93,-24.98 -41.49,-32 -86.07,-9.28z"/>
  <path class="fil76" d="M4008.78 1299.31l11.91 8.7c24.81,-26.43 46.08,-38.28 80.58,-42.31l50.39 -56.2c-20.92,-1.19 -3.88,-5.34 -22.09,4.09l-120.79 85.72z"/>
  <path class="fil13" d="M2748.82 5059.21c0.8,41.11 28.71,60.98 69.05,45.4 -10.58,-26.11 -37.26,-65.23 -69.05,-45.4z"/>
  <polygon class="fil77" points="2710.04,-1663.36 2751.99,-1632.21 2782.01,-1667.14 2742.48,-1701.11 "/>
  <path class="fil35" d="M4384.05 1568.23l26.74 97.46c23.65,-38.24 3.71,-55.34 5.06,-98.99l-20.15 -21.94 -12.89 19.23 1.24 4.24z"/>
  <path class="fil74" d="M1917.16 1781.1l-61.03 13.06 26.07 6.49 92.18 15.5c2.46,-1.86 5.12,-4.8 6.99,-6.09 1.95,-1.36 4.82,-1.12 8.53,-4.62 4.07,-3.82 6.63,-2.61 10.13,-3.14 -54.79,-28.69 -34.33,-1.4 -82.87,-21.2z"/>
  <path class="fil47" d="M3290.31 1430.13l-20.83 41.56 40.74 2.28 46.45 10.1 2.1 7.12c15.85,-6.36 19.18,-10.56 33.85,-17.23 -63.6,-22.59 -49.39,11.16 -102.31,-43.83z"/>
  <path class="fil35" d="M2193.05 1819.57l-2.79 -5.62c-2.12,0.83 -3.78,0.51 -6.33,2.5 -2.76,2.17 -5.43,1.97 -7,2.34 -1.96,0.47 -25.67,5.18 -26.87,5.38l79.46 38.71 51.75 -33.85c-45.64,-6.92 -44.97,18.29 -88.22,-9.46z"/>
  <path class="fil39" d="M3310.22 1473.97c-32.13,11.74 -29.11,14.41 -62.57,-1.87l-25.2 23.55c11.43,2.39 11.57,6.25 33.2,6.12 33.89,-1.93 74.14,0.48 101.02,-17.7l-46.45 -10.1z"/>
  <path class="fil75" d="M4367.07 1510l-2.27 -25.28c-7.9,-35.44 -25.04,-66.97 -11.38,-104.45l-19.52 -10.52c-13.7,43.64 3.5,111.25 33.17,140.25z"/>
  <path class="fil12" d="M1751.48 4272.61c33.77,30.23 32.74,44.89 70.16,32.74 -10.78,-37.06 -14.11,-34.12 -49.31,-56.25l-20.85 23.51z"/>
  <path class="fil63" d="M1694.27 1775.57l-32.41 18.39c31.71,23.79 49.22,10.57 93.62,20.5l25.31 -15.24c-38.98,-10.88 -47.73,-0.85 -86.52,-23.65z"/>
  <path class="fil66" d="M1692.86 4607.08c37.5,19.7 107.92,27.7 143.14,3.63 -32.04,-8.01 -110.7,-11.56 -143.14,-3.63z"/>
  <path class="fil78" d="M2193.05 1819.57c43.25,27.75 42.58,2.54 88.22,9.46l10.98 -20.67 -21.85 -14.94 -77.35 26.15z"/>
  <path class="fil12" d="M4923.67 2336.21c-2.82,39.72 23.57,63.11 60.64,51.59 -9.15,-36.92 -17.15,-48.12 -60.64,-51.59z"/>
  <path class="fil79" d="M4453.6 4850.6c51.73,12.77 13.08,-3.31 75.04,0.21 32.48,1.82 57.17,10.96 89.55,-0.72 -85.39,-8.89 -93.93,-38.59 -164.59,0.51z"/>
  <path class="fil35" d="M4842.61 2029.95l-40.49 15.02c29.44,7.34 11.51,1.91 32.13,16.89 23.63,-7.77 23.6,-6.05 53.17,-0.08l39.15 -17.09 -83.96 -14.74z"/>
  <path class="fil12" d="M2641.63 5009.4c-11.54,36.84 21.65,61.28 57.75,50.77 -8.25,-34.4 -16.86,-46.75 -57.75,-50.77z"/>
  <path class="fil80" d="M1939.1 5188.46l-17.31 -28.4 -41.88 11.51c1.54,44.69 -8.14,18.1 25.51,44.35l33.68 -27.46z"/>
  <path class="fil23" d="M1667.74 2256.64l6.29 -20.32 -47.35 -132.06c-8.36,70.29 22.18,58.85 20.04,123.64l21.02 28.74z"/>
  <path class="fil49" d="M5576.41 3627.29l40.78 -15.33c27.88,-33.56 33.63,-22.73 75.01,-51.42 -54.05,-3.99 -86.13,19.86 -115.79,66.75z"/>
  <path class="fil24" d="M1557.77 3705.59l12.5 -17.55 -8.15 -58.88c-4.1,-25.06 2.48,-5.7 -19.87,-29.3 -11.43,39.4 -0.57,69.57 15.52,105.73z"/>
  <path class="fil51" d="M1697.22 4157.23c10.21,35.82 17.02,44.97 57.79,48.84 -1.07,-9.23 11.58,-10.55 -10.72,-34.29 -41.14,-43.82 -34.83,-15.45 -47.07,-14.55z"/>
  <path class="fil75" d="M5115.65 4671.13l-2.49 -68.89 9.14 -3.05c-34.37,-26.89 -16.8,-16.45 -28.37,-61.71l-18.54 28.3 40.26 105.35z"/>
  <path class="fil36" d="M2413.33 1739.86l14.52 12.48c41.68,-40.9 39.95,-7.11 83.15,-57.31 -35.06,-9.75 -70.03,19.46 -97.67,44.83z"/>
  <path class="fil80" d="M-947.59 2768.44l3.01 2.2c31.04,31.37 38.52,32.47 60.33,-10.17l-40.23 -22.92 -23.11 30.89z"/>
  <path class="fil69" d="M5096.75 4869.59l15.57 20.18c18.88,-10.85 28.07,-26.19 43.59,-3.1 27.9,-32.11 25.7,-24.32 -0.76,-74.49l-3.69 43.32 -54.71 14.09z"/>
  <path class="fil44" d="M5288.57 2370.62c23.9,-27.17 13.99,-10.56 27.53,-45.14 19.16,-48.87 12.31,-16.94 8.51,-54.2l-49.36 77.08 13.32 22.26z"/>
  <path class="fil49" d="M1882.2 1800.65c-3.24,0.86 -5.56,0.21 -9.36,3.64 -3.47,3.12 -6.4,3.04 -8.21,4.06 -1.64,0.9 -4.57,3.17 -7.03,4.44 67.23,38.45 23.02,-11.78 85.65,21.51l31.13 -18.15 -92.18 -15.5z"/>
  <polygon class="fil81" points="5272.18,2051.51 5307.26,2069.56 5319.6,2058.72 5343.02,2072.74 5361.51,2057.17 5301.71,2027.62 "/>
  <path class="fil28" d="M4377.48 1613.22l7.57 44.78 24.34 37.59c0.14,-17.93 2.79,-11.92 6.94,-29l-5.54 -0.9 -26.74 -97.46 -6.57 44.99z"/>
  <path class="fil68" d="M1629.4 4568.81l21.87 17.42 12.28 4.8 58.86 -10.98c-23.86,-14.51 -19.38,-17.01 -49.99,-20.07 -28.27,-2.82 -28.68,2.44 -43.02,8.83z"/>
  <path class="fil30" d="M5257.74 2406.02c-8.76,45.61 -27.72,47.76 -27.22,98.53 21.81,-40.73 23.07,-71.83 56.65,-97.19 0.03,-0.12 3.39,-20.92 3.47,-22.11 0.09,-1.4 -2.36,-4.41 -0.73,-7.33 1.65,-2.95 -0.91,-4.86 -1.34,-7.3l-30.83 35.4z"/>
  <path class="fil65" d="M5172.11 2987.83l14.57 -21.48c-29.11,-39.78 -12.44,-16.4 -13.49,-40.43l-2.49 -27.18 -15.58 -12.59c-10.55,31.21 0.37,74.63 16.99,101.68z"/>
  <path class="fil48" d="M1344.1 4520.55l-21.27 25.61c26.93,31.51 36.72,25.32 75.03,30.47l1.05 3.75 13.7 -15.94 -52.46 -9.16 -16.05 -34.73z"/>
  <path class="fil49" d="M1451.77 2878.71c48.56,-4.52 45.05,-5.99 88.29,-32.45l-15.7 -11.08c-42.48,15.52 -45.56,6.63 -72.59,43.53z"/>
  <path class="fil75" d="M1523.37 4570.97c26.11,7.4 30.08,6.91 56.48,9.48 42.17,4.1 26.53,9.41 49.55,-11.64 -26.11,-13.6 -73.77,-11.34 -106.03,2.16z"/>
  <path class="fil36" d="M4643.97 4829.41c32.55,17.82 85.69,19.93 123.99,7.75 -28.33,-10.49 -100.42,-17.69 -123.99,-7.75z"/>
  <path class="fil30" d="M4364.8 1484.72l15.63 -12.03 -9.66 -49.11 -2.3 -2.13 -15.05 -41.18c-13.66,37.48 3.48,69.01 11.38,104.45z"/>
  <path class="fil47" d="M1322.83 4546.16l-14.72 29.2c26.42,16.57 61.39,22 89.75,1.27 -38.31,-5.15 -48.1,1.04 -75.03,-30.47z"/>
  <path class="fil75" d="M2360.12 5011.43c-6.34,29.16 -2.03,65.36 15.86,93.23 12.65,-31.84 0.98,-82.59 -14.48,-113.58l-1.38 20.35z"/>
  <path class="fil62" d="M5172.11 2987.83l21.36 52.19c21.67,-36.16 14.24,-10.57 4.73,-47.23 -9.27,-22.29 -17.44,-25.94 -6.67,-48.46l-18.34 -18.41c1.05,24.03 -15.62,0.65 13.49,40.43l-14.57 21.48z"/>
  <path class="fil75" d="M4380.46 1732.58c21.58,25.69 0.19,14.65 26.83,11.47l2.1 -48.46 -24.34 -37.59c-1.27,34.83 7.52,40.54 -4.59,74.58z"/>
  <path class="fil53" d="M4251.64 4953.89c46.06,-5.24 69.37,-23.78 105.03,-57.92 -28.52,7.26 -86.01,30.62 -105.03,57.92z"/>
  <path class="fil45" d="M1658.3 1761.59l35.97 13.98c2.39,-0.8 7.78,-3.92 7.26,-2.09 -0.53,1.8 5.76,-1.44 7.29,-1.5 62.05,-2.2 18.28,10.78 64.35,-7.04 -28.49,-8.66 -87.88,-17.88 -114.87,-3.35z"/>
  <path class="fil30" d="M5067.98 4465.53l13.56 32.97 8.07 -40.57 -7.76 0.31c-11.32,-39.09 -1.33,-28.07 -24.92,-58.38 -6.51,29.09 -9.7,40.05 11.05,65.67z"/>
  <path class="fil23" d="M1343.72 2907.27l115 -60c-55.12,-1.89 -76.4,15.71 -115,60z"/>
  <path class="fil81" d="M4889.97 4879.94c35.86,23.4 52.1,36.89 90.1,11.15 -36.81,-16.54 -54.99,-15.06 -90.1,-11.15z"/>
  <path class="fil19" d="M4351.75 4892.59c42.84,-2.76 54.24,-12.62 87.9,-44.99 -38.67,1.12 -59.09,11.98 -87.9,44.99z"/>
  <path class="fil65" d="M3404.01 5165.4c23.8,10.01 32.93,11.89 61.87,5.99 13.08,-4.84 19.1,-10.11 31.58,-15.3 -51.41,-14.08 -21.75,8.12 -80.94,-6.82l-12.51 16.13z"/>
  <path class="fil49" d="M5086.04 4542.9l18.52 -14.87 -23.02 -29.53 -13.56 -32.97c-18.24,38.94 -8.21,43.59 18.06,77.37z"/>
  <path class="fil63" d="M4097.3 5165.91l41.77 -86.2 -16.46 -4.88c-33.43,50.34 -25.63,38.35 -25.31,91.08z"/>
  <path class="fil40" d="M5008.23 4209.43c11.94,39.5 -0.03,20.06 27.81,52.16 10.71,-39.57 3.24,-39.58 -6.98,-77.89l-20.83 25.73z"/>
  <polygon class="fil79" points="2421.1,5523.03 2412.37,5560.6 2449.96,5587.14 2498.89,5548.05 2445.02,5568.92 "/>
  <path class="fil75" d="M4020.69 1308.01c44.2,3.72 53.17,-6.03 80.58,-42.31 -34.5,4.03 -55.77,15.88 -80.58,42.31z"/>
  <path class="fil23" d="M3392.21 5199l60.67 47.69c-1.98,-40.8 -1.51,-33.88 -38.76,-59.1l-21.91 11.41z"/>
  <path class="fil36" d="M5155.91 4886.67c-15.52,-23.09 -24.71,-7.75 -43.59,3.1l40.16 6.44 16.86 6.82 17.99 7.37c20.84,-29.2 23.48,-15.52 4.69,-52.2l1.83 31.7 -37.94 -3.23z"/>
  <path class="fil53" d="M3068.48 5145.49c40.02,31.09 15.47,3.84 59.64,22.74 2.51,-0.79 5.65,-2.74 7.09,-3.43 1.44,-0.69 4.18,-0.86 7.02,-3.39 2.8,-2.48 4.47,-2.58 6.92,-3.32 -32.68,-23.78 -45.77,-27.75 -80.67,-12.6z"/>
  <path class="fil47" d="M5093.93 4537.48c11.57,45.26 -6,34.82 28.37,61.71 8.38,-31.39 6.64,-45.29 -17.74,-71.16l-18.52 14.87 7.89 -5.42z"/>
  <path class="fil71" d="M5155.12 2886.15l15.58 12.59c1.94,-12.3 5.3,-18.82 6.9,-33.48l-6.79 -7.44c-12.17,-24.58 -4.28,-9.02 -19.51,-26.66l-14.9 21.39 18.72 33.6z"/>
  <path class="fil56" d="M5353.68 2086.71l47.32 40.74c3.89,-14.5 30.15,-16.68 -10,-42.65 -27.26,-17.64 -22.08,-3.15 -37.32,1.91z"/>
  <path class="fil74" d="M5151.3 2831.16c15.23,17.64 7.34,2.08 19.51,26.66l3.73 -40.43 -24.73 -62.84 -17.19 -20.77c7.47,29.07 13.23,26.5 19.48,53.14 4.52,19.27 1.16,32.44 -0.8,44.24z"/>
  <path class="fil82" d="M5546.07 977.36l4.29 8.13 -36.81 -23.71c-37.28,20.3 -23.65,30.92 13.03,46.41l19.49 -30.83z"/>
  <path class="fil19" d="M2971.92 5179.75c-2.46,-28.21 -8.98,-31.46 -17.98,-43.11l38.45 15.12 12.89 -14.99c-34.25,-8.58 -46.35,-16.46 -71.26,-1.88l37.9 44.86z"/>
  <path class="fil27" d="M5218.02 2059.13c34.32,25.65 13.56,10.13 58.87,20.29l-4.39 -4.99c3.64,-0.34 7.58,-1.65 10.78,-2.21 3.39,-0.58 6.28,1.79 11.58,-1.62 5.63,-3.63 8.25,-1.15 12.4,-1.04l-35.08 -18.05 -54.16 7.62z"/>
  <path class="fil29" d="M1584.44 1750.48c29.57,18.86 43.9,15.57 78.3,7.59 -36.06,-22.05 -43.24,-28.75 -78.3,-7.59z"/>
  <path class="fil50" d="M5170.7 2898.74l2.49 27.18 18.34 18.41 3.68 -55.13 -17.61 -23.94c-1.6,14.66 -4.96,21.18 -6.9,33.48z"/>
  <path class="fil62" d="M4802.12 2044.97l0.32 9.26c-14.25,8.05 -24.18,13.65 -35.48,21.07l24.86 30.42 -6.62 -35.18 38.21 3.49 10.84 -12.17c-20.62,-14.98 -2.69,-9.55 -32.13,-16.89z"/>
  <path class="fil49" d="M4834.25 2061.86l33.54 15.82c33.91,10.52 23.94,8.93 52.92,-7.28l-33.29 -8.62c-29.57,-5.97 -29.54,-7.69 -53.17,0.08z"/>
  <path class="fil83" d="M5145.53 3927.35c32.7,-37.4 17.24,-39.89 26.65,-80.13 -29.92,14.03 -30.07,46.01 -26.65,80.13z"/>
  <path class="fil64" d="M4334.63 1331.06c-12.81,20.73 -9.8,7.16 -0.73,38.69l19.52 10.52c2.93,-31.3 -4.25,-50.45 -19.71,-79.43l0.92 30.22z"/>
  <path class="fil35" d="M5081.54 4498.5l23.02 29.53c10.87,-34.5 10.25,-37.67 -14.95,-70.1l-8.07 40.57z"/>
  <path class="fil35" d="M5081.85 4458.24c19.37,-34.36 10.75,-21.62 5.72,-57.15l-15.9 -13.13 -14.74 11.9c23.59,30.31 13.6,19.29 24.92,58.38z"/>
  <path class="fil45" d="M3292.34 5177.5l-11.83 -9.88 7.64 2.62 -41.97 12.81 52.05 20.12 24.1 -14.07c-17.06,-7.2 -10.39,-8.22 -29.99,-11.6z"/>
  <path class="fil74" d="M4367.07 1510c21.14,16.1 11.52,-0.53 21.75,25.26l8.92 -33.42 -17.31 -29.15 -15.63 12.03 2.27 25.28z"/>
  <path class="fil49" d="M5024.52 4866.98c35.34,12.59 38.91,14.18 72.23,2.61l-37.9 -21.11 -34.33 18.5z"/>
  <path class="fil48" d="M4366.98 1550.6l15.83 13.39 12.89 -19.23 -6.88 -9.5c-10.23,-25.79 -0.61,-9.16 -21.75,-25.26 -10.71,27.91 -11.98,5.52 -0.09,40.6z"/>
  <polygon class="fil25" points="1587.73,1986.25 1594.31,1924.88 1579.14,1923.73 1566.09,1958.11 "/>
  <path class="fil29" d="M5187.33 4910.4c30.36,-4.21 -2.54,27.06 31.67,-11.3 0.93,-32.07 7.38,-14.9 -15.9,-44.72l-11.08 3.82c18.79,36.68 16.15,23 -4.69,52.2z"/>
  <path class="fil23" d="M3322.12 5196.22c31.13,15.12 39,21.83 70.09,2.78 -32.62,-18.08 -31.79,-12.68 -70.09,-2.78z"/>
  <path class="fil59" d="M5307.26 2069.56c-4.15,-0.11 -6.77,-2.59 -12.4,1.04 -5.3,3.41 -8.19,1.04 -11.58,1.62 -3.2,0.56 -7.14,1.87 -10.78,2.21l18.08 17.19 52.44 -18.88 -23.42 -14.02 -12.34 10.84z"/>
  <path class="fil23" d="M4771.95 2039.28l30.49 14.95 -0.32 -9.26 40.49 -15.02c-38.83,-9.81 -36.81,-10.31 -70.66,9.33z"/>
  <path class="fil76" d="M4264.02 1124.48c37.63,11.18 29.24,15.92 47.14,52.47 3.02,-37.86 2.88,-34.26 -18.67,-65.53l-28.47 13.06z"/>
  <path class="fil23" d="M5170.81 2857.82l6.79 7.44 17.61 23.94c-1.07,-41.6 4.12,-37.13 -20.67,-71.81l-3.73 40.43z"/>
  <path class="fil84" d="M5200.6 3125.08c0.33,-2.71 3.36,-8.5 1.8,-7.96 -20.31,6.97 2.41,-14.73 2.39,-18.13l7.11 -18.71 -15.87 -16.51c-20.05,36.47 -21.49,30.84 4.57,61.31z"/>
  <path class="fil27" d="M5139.14 4661.64c9.42,-38.03 14.01,-39.37 -16.84,-62.45l-9.14 3.05 25.98 59.4z"/>
  <path class="fil78" d="M2597.59 1507.55c21.52,-40.06 26.37,-30.91 18.87,-73.18 -27.92,34.88 -17.95,29.95 -18.87,73.18z"/>
  <path class="fil44" d="M2343.21 4996.9l16.91 14.53 1.38 -20.35 -4.68 3.16c-6,-13.45 -5.86,-16.4 -9.12,-24.55 -1.05,-2.63 -8.25,-11.04 -6.7,-15.21 1.23,-3.3 -2.28,-4.89 -3.61,-7.23 -11.85,20.89 -16.93,23.44 5.82,49.65z"/>
  <path class="fil27" d="M5159.06 4726.67l-0.93 -56.2 -17.91 -15.56c-4.05,40.16 -2.8,34.58 18.84,71.76z"/>
  <path class="fil24" d="M3410.82 1476.41c38.88,13.46 47.94,10.68 84.44,4.03 -39.32,-15.23 -46.28,-14.38 -84.44,-4.03z"/>
  <path class="fil85" d="M3548.77 1498.2l29.46 17.39 28.71 -16.31c-31.46,-17.05 -33.05,-14.25 -58.17,-1.08z"/>
  <path class="fil25" d="M2133.68 1812.5c18.27,18.41 2.47,21.53 16.38,11.67 1.2,-0.2 24.91,-4.91 26.87,-5.38 1.57,-0.37 4.24,-0.17 7,-2.34 2.55,-1.99 4.21,-1.67 6.33,-2.5 -31.22,-19.17 -26.34,-19.15 -56.58,-1.45z"/>
  <path class="fil63" d="M4377.48 1613.22l6.57 -44.99 -1.24 -4.24 -15.83 -13.39c-6.09,38.63 -10.84,30.75 10.5,62.62z"/>
  <polygon class="fil76" points="5038.3,4386.27 5056.93,4399.86 5071.67,4387.96 5069.97,4389.49 5042.59,4345.05 "/>
  <path class="fil65" d="M3340.68 5166.48c30.78,7.42 35.49,12.01 63.33,-1.08l-38.62 -16.2 -24.71 17.28z"/>
  <path class="fil23" d="M2352 5150.29c11.68,-28.3 14.14,-22.32 -8.18,-50.06 -16.88,36.92 -15.66,27.89 8.18,50.06z"/>
  <polygon class="fil49" points="4334.63,1331.06 4333.71,1300.84 4320.47,1265.59 4305.52,1287.06 "/>
  <path class="fil63" d="M1943.25 1834.3c33.84,16.61 23.48,13.68 53.63,-3.53l-22.5 -14.62 -31.13 18.15z"/>
  <path class="fil76" d="M2746.91 1188.43c20.84,-37.68 35.07,-49.83 17.92,-88.58l-17.92 88.58z"/>
  <path class="fil66" d="M3178.89 5175.65l-24.46 15.69c37.67,12.32 30.32,9.5 61.06,-9.27l-36.6 -6.42z"/>
  <path class="fil66" d="M4388.82 1535.26l6.88 9.5 20.15 21.94c-8,-40.44 1.5,-29.08 -18.11,-64.86l-8.92 33.42z"/>
  <path class="fil35" d="M4409.39 1695.59c16.91,16.84 10.04,0.75 18.88,24.84l10.24 -26.84 -22.18 -27c-4.15,17.08 -6.8,11.07 -6.94,29z"/>
  <path class="fil46" d="M1567.05 3776.72c4.52,-28.91 12.03,-29.06 -13.09,-49.24l-10.61 22.6 23.7 26.64z"/>
  <path class="fil50" d="M3149.15 5158.09c-2.45,0.74 -4.12,0.84 -6.92,3.32 -2.84,2.53 -5.58,2.7 -7.02,3.39 -1.44,0.69 -4.58,2.64 -7.09,3.43l26.31 23.11 24.46 -15.69c-27.03,-8.05 -9.21,-0.91 -29.74,-17.56z"/>
  <path class="fil35" d="M1663.55 4591.03l-12.28 -4.8 -11.12 18.73c42.55,11.04 16.41,14.13 54.65,-0.58 -19.73,-4.55 -18.3,-7.33 -31.25,-13.35z"/>
  <path class="fil23" d="M4837.33 4873.18c30.58,17.61 20.99,22.21 53.54,-0.02 -27.65,-9.38 -25.42,-13.85 -53.54,0.02z"/>
  <polygon class="fil39" points="3280.51,5167.62 3292.34,5177.5 3336.68,5166.99 3307.8,5151.51 "/>
  <path class="fil40" d="M5115.84 4909.19c31.49,16.51 19.17,21.69 53.5,-6.16l-16.86 -6.82 -36.64 12.98z"/>
  <path class="fil86" d="M2428.91 5353.82l4.66 -43.03 -13.55 -19.75c-12.38,30.18 -6.7,29.03 8.89,62.78z"/>
  <path class="fil75" d="M1806.47 1806.51c28.4,19.71 21.26,21.06 51.13,6.28 -27.15,-20.03 -19.76,-16.2 -51.13,-6.28z"/>
  <path class="fil67" d="M5205.19 3255.75c15.04,-39.02 -2.17,-24.7 -4.35,-75.92 -14.28,35.11 -6.95,43.98 4.35,75.92z"/>
  <path class="fil44" d="M4965.75 4866.24c37.02,4.81 30.76,6.58 64.35,-4.13 -38.65,-16.17 -29.66,-14.43 -64.35,4.13z"/>
  <path class="fil31" d="M3109.14 1474.21c-29.73,34.44 -6.06,28.67 19.7,23.5 -0.84,-3.17 25.14,-1.5 -19.7,-23.5z"/>
  <path class="fil49" d="M5038.3 4386.27l4.29 -41.22 -12.47 -8.06c-18.99,27.6 -9.59,25.72 8.18,49.28z"/>
  <path class="fil29" d="M2342.4 5099.18c6.91,-29.48 13.14,-25.85 -5.98,-55.05 -12.87,36.21 -12.59,24.25 5.98,55.05z"/>
  <path class="fil58" d="M1274.08 2948.12c32.26,7.76 27.41,6.75 50.35,-14.34 -25.4,-12.03 -26.87,-1.19 -50.35,14.34z"/>
  <polygon class="fil50" points="3634.29,1485.82 3657.73,1501.29 3678.15,1489.55 3655.71,1472.94 "/>
  <path class="fil24" d="M1622.17 3912.64c10.82,-18.16 -6.28,-28.48 -17.14,-42.56 -13.93,28.93 -1.97,26.54 17.14,42.56z"/>
  <polygon class="fil58" points="1667.74,2256.64 1687.05,2273.26 1697.36,2250.12 1674.03,2236.32 "/>
  <path class="fil49" d="M2383.62 5157.73l6.87 -12.8c-1.03,-39.25 8.04,-12 -14.51,-40.27 -5.48,29.93 -2.93,19.2 7.64,53.07z"/>
  <path class="fil87" d="M5198.2 2992.79l8.5 -40.57 -15.17 -7.89c-10.77,22.52 -2.6,26.17 6.67,48.46z"/>
  <polygon class="fil48" points="5219.83,3822.4 5227.67,3812.69 5203.94,3793.34 5186.44,3807.7 "/>
  <path class="fil85" d="M3945.7 5101.52c20.94,-6.14 9.43,33.67 25.92,-28.41 -33,11.24 -20.85,-8.88 -25.92,28.41z"/>
  <path class="fil14" d="M1588.38 4600.68l22.35 16.12 29.42 -11.84c-32.44,-9.84 -25.04,-11.38 -51.77,-4.28z"/>
  <path class="fil62" d="M5200.6 3125.08c1.9,7.86 5.18,13.31 5.38,20.86l14.21 -22.58 -15.4 -24.37c0.02,3.4 -22.7,25.1 -2.39,18.13 1.56,-0.54 -1.47,5.25 -1.8,7.96z"/>
  <polygon class="fil21" points="2396.43,5255.92 2407.74,5240.9 2393.99,5217.94 2380.72,5242.67 "/>
  <path class="fil79" d="M4252.5 4979.52c35.8,14.13 27.28,11.17 56.07,-15.05l-56.07 15.05z"/>
  <polygon class="fil74" points="3209.49,5183.83 3232.6,5194.92 3246.18,5183.05 3231.19,5168.45 "/>
  <path class="fil85" d="M1535.26 3031.35c38.03,-14.79 13.21,10.1 21.72,-26.82 -25.07,7.62 -19.69,-15.1 -21.72,26.82z"/>
  <path class="fil31" d="M2805.02 1554.63c-55.42,22.97 -18.15,8.99 -22.7,24.73 24.32,-11.48 19.4,17.39 22.7,-24.73z"/>
  <path class="fil84" d="M5194.15 3171.5c-4.33,-24.55 -5.56,-2.82 11.83,-25.56 -0.2,-7.55 -3.48,-13 -5.38,-20.86l-16.96 23.41 10.51 23.01z"/>
  <polygon class="fil31" points="1720.59,4582.56 1774.17,4583.22 1745.75,4568.44 "/>
  <polygon class="fil24" points="5196.03,3063.77 5211.9,3080.28 5219.45,3066.71 5200.33,3045.94 "/>
  <polygon class="fil35" points="4380.43,1472.69 4391.24,1450.31 4370.77,1423.58 "/>
  <path class="fil31" d="M5244.13 3311.09l-10.32 -17.51c-19.71,25.55 -15.32,6.68 -7.71,30.31l18.03 -12.8z"/>
  <polygon class="fil43" points="3005.28,5136.77 2992.39,5151.76 3043.93,5146.71 "/>
  <polygon class="fil44" points="4842.78,4845.52 4863.51,4856.9 4883.3,4843.62 "/>
 </g>
</svg>
