<svg width="16" height="14" viewBox="0 0 16 14" fill="none" xmlns="http://www.w3.org/2000/svg">
<path d="M7.99935 2.99948C10.526 2.99948 12.7793 4.41948 13.8793 6.66615C13.486 7.47948 12.9327 8.17948 12.2727 8.74615L13.2127 9.68615C14.1393 8.86615 14.8727 7.83948 15.3327 6.66615C14.1793 3.73948 11.3327 1.66615 7.99935 1.66615C7.15268 1.66615 6.33935 1.79948 5.57268 2.04615L6.67268 3.14615C7.10602 3.05948 7.54602 2.99948 7.99935 2.99948ZM7.28602 3.75948L8.66602 5.13948C9.04602 5.30615 9.35268 5.61281 9.51935 5.99281L10.8993 7.37281C10.9527 7.14615 10.9927 6.90615 10.9927 6.65948C10.9993 5.00615 9.65268 3.66615 7.99935 3.66615C7.75268 3.66615 7.51935 3.69948 7.28602 3.75948ZM1.33935 1.57948L3.12602 3.36615C2.03935 4.21948 1.17935 5.35281 0.666016 6.66615C1.81935 9.59281 4.66602 11.6661 7.99935 11.6661C9.01268 11.6661 9.98602 11.4728 10.8793 11.1195L13.1593 13.3995L14.0993 12.4595L2.27935 0.632812L1.33935 1.57948ZM6.33935 6.57948L8.07935 8.31948C8.05268 8.32615 8.02602 8.33281 7.99935 8.33281C7.07935 8.33281 6.33268 7.58615 6.33268 6.66615C6.33268 6.63281 6.33935 6.61281 6.33935 6.57948ZM4.07268 4.31281L5.23935 5.47948C5.08602 5.84615 4.99935 6.24615 4.99935 6.66615C4.99935 8.31948 6.34602 9.66615 7.99935 9.66615C8.41935 9.66615 8.81935 9.57948 9.17935 9.42615L9.83268 10.0795C9.24602 10.2395 8.63268 10.3328 7.99935 10.3328C5.47268 10.3328 3.21935 8.91281 2.11935 6.66615C2.58602 5.71281 3.26602 4.92615 4.07268 4.31281Z" fill="currentColor"/>
</svg>
