<svg width="28" height="28" viewBox="0 0 28 28" fill="none" xmlns="http://www.w3.org/2000/svg">
<path d="M14.0003 20.6666C14.3781 20.6666 14.695 20.5386 14.951 20.2826C15.2061 20.0275 15.3337 19.7111 15.3337 19.3333C15.3337 18.9555 15.2061 18.6386 14.951 18.3826C14.695 18.1275 14.3781 18 14.0003 18C13.6225 18 13.3061 18.1275 13.051 18.3826C12.795 18.6386 12.667 18.9555 12.667 19.3333C12.667 19.7111 12.795 20.0275 13.051 20.2826C13.3061 20.5386 13.6225 20.6666 14.0003 20.6666ZM12.667 15.3333H15.3337V7.33329H12.667V15.3333ZM14.0003 27.3333C12.1559 27.3333 10.4225 26.9831 8.80033 26.2826C7.1781 25.5831 5.76699 24.6333 4.56699 23.4333C3.36699 22.2333 2.41721 20.8222 1.71766 19.2C1.01721 17.5777 0.666992 15.8444 0.666992 14C0.666992 12.1555 1.01721 10.4222 1.71766 8.79996C2.41721 7.17774 3.36699 5.76663 4.56699 4.56663C5.76699 3.36663 7.1781 2.4164 8.80033 1.71596C10.4225 1.0164 12.1559 0.666626 14.0003 0.666626C15.8448 0.666626 17.5781 1.0164 19.2003 1.71596C20.8225 2.4164 22.2337 3.36663 23.4337 4.56663C24.6337 5.76663 25.5834 7.17774 26.283 8.79996C26.9834 10.4222 27.3337 12.1555 27.3337 14C27.3337 15.8444 26.9834 17.5777 26.283 19.2C25.5834 20.8222 24.6337 22.2333 23.4337 23.4333C22.2337 24.6333 20.8225 25.5831 19.2003 26.2826C17.5781 26.9831 15.8448 27.3333 14.0003 27.3333ZM14.0003 24.6666C16.9781 24.6666 19.5003 23.6333 21.567 21.5666C23.6337 19.5 24.667 16.9777 24.667 14C24.667 11.0222 23.6337 8.49996 21.567 6.43329C19.5003 4.36663 16.9781 3.33329 14.0003 3.33329C11.0225 3.33329 8.50033 4.36663 6.43366 6.43329C4.36699 8.49996 3.33366 11.0222 3.33366 14C3.33366 16.9777 4.36699 19.5 6.43366 21.5666C8.50033 23.6333 11.0225 24.6666 14.0003 24.6666Z" fill="#c70000"/>
</svg>
