<svg width="28" height="28" viewBox="0 0 28 28" fill="none" xmlns="http://www.w3.org/2000/svg">
<path d="M14.0003 0.666626C6.65232 0.666626 0.666992 6.65196 0.666992 14C0.666992 21.348 6.65232 27.3333 14.0003 27.3333C21.3483 27.3333 27.3337 21.348 27.3337 14C27.3337 6.65196 21.3483 0.666626 14.0003 0.666626ZM14.0003 3.33329C19.9072 3.33329 24.667 8.09313 24.667 14C24.667 19.9068 19.9072 24.6666 14.0003 24.6666C8.0935 24.6666 3.33366 19.9068 3.33366 14C3.33366 8.09313 8.0935 3.33329 14.0003 3.33329ZM19.7243 9.05725L11.3337 17.4479L8.27637 14.3906L6.39095 16.276L11.3337 21.2187L21.6097 10.9427L19.7243 9.05725Z" fill="#4E8B49"/>
</svg>
